<svg xmlns="http://www.w3.org/2000/svg" width="16" height="16" viewBox="0 0 500 500"><path fill="#040404" d="M301 52c-.34 1.922-.34 1.922-1 4-2.562 1.25-2.562 1.25-5 2v2a115 115 0 0 1-6.25 4.063C281.879 68.359 275.417 73.046 269 78l-3.074 2.332c-11.517 8.769-22.888 17.745-33.551 27.543-3.5 3.132-7.16 6.056-10.832 8.984-2.638 2.15-2.638 2.15-5.18 4.844C214 124 214 124 211 125v2c-3 2-3 2-6 2 2.089-6.748 5.308-12.639 8.813-18.75l1.055-1.841a582 582 0 0 1 7.905-13.323c1.171-1.991 2.22-4.008 3.227-6.086-30.164 3.65-58.142 21.889-80 42l-2.59 2.371c-4.954 4.745-9.11 9.93-13.138 15.465-1.047 1.421-2.155 2.797-3.272 4.164h-2l-.75 2.688c-1.328 3.519-2.909 5.386-5.25 8.312-19.602 32.444-29.122 71.623-20 109q.597 2.75 1.188 5.5L101 282c3.035-1.517 3.536-3.962 5-7 5.584-10.416 11.763-20.418 18.5-30.125.6-.87 1.198-1.742 1.816-2.64l1.715-2.43 1.518-2.157C131 236 131 236 134 235l.875-2.187c1.476-3.69 3.418-5.903 6.125-8.813h2l.814-1.798c1.189-2.207 2.393-3.667 4.155-5.436l1.73-1.739 1.801-1.777 1.8-1.824 1.731-1.723 1.58-1.573C158 207 158 207 160 207v-2h2l2-5-2.75.438c-4.396.631-8.808.96-13.234 1.304-2.726.233-5.428.542-8.141.883C136 203 136 203 134 202c1.472-3.615 3.415-5.406 6.5-7.75l2.406-1.86C145 191 145 191 147 191v-2a115 115 0 0 1 6.75-4.187l2.076-1.215q2.1-1.227 4.204-2.446a288 288 0 0 0 5.075-3.054c6.807-4.14 13.813-7.42 21.133-10.52l1.89-.8q1.89-.786 3.799-1.528c3.499-1.397 5.915-2.604 8.198-5.625 2.454-3.099 5.075-5.825 7.875-8.625 2.3-2.535 4.579-5.088 6.86-7.64 2.301-2.538 4.718-4.938 7.14-7.36l2.438-3c2.687-3.147 5.268-5.511 8.562-8h2v-2h2l1-3a115 115 0 0 1 6.125-4.937l3.855-2.961 2.018-1.546a285 285 0 0 0 5.74-4.595A268 268 0 0 1 282 87l2.68-1.777C287 84 287 84 291 84c-.624 11.57-1.546 23.057-3.902 34.426-1.337 6.559-2.357 13.168-3.385 19.78-.34 2.186-.687 4.371-1.033 6.556l-.657 4.199-.596 3.806c-.514 3.35-.514 3.35-.427 7.233l1.61.719c3.087 1.655 5.843 3.686 8.64 5.781l1.68 1.223c1.396 1.042 2.738 2.154 4.07 3.277v2l2 .563c3.493 1.673 5.853 3.8 8.707 6.386 2.48 2.217 5.027 4.326 7.606 6.426l2.808 2.32a131 131 0 0 0 5.852 4.422C331.76 198.84 334.05 203.992 337 213c5.307 14.452 5.307 14.452 16 25q3.007 2.147 6 4.313l2.875 1.988L364 246v2l2.137.727c3.34 1.485 5.81 3.375 8.676 5.648q1.711 1.346 3.425 2.688l1.83 1.437c4.108 3.19 8.292 6.28 12.463 9.388 3.54 2.645 7.037 5.327 10.469 8.112-2.505 9.705-6.685 22.288-15.598 27.777L385 305l-3.371 1.754a345 345 0 0 1-7.348 3.64c-2.515 1.231-4.935 2.498-7.344 3.918L364 316l-2.312 1.375c-7.504 1.745-16.623-2.481-23.75-4.75A337 337 0 0 0 309 305l-3.91-.871c-12.543-2.796-12.543-2.796-25.215-2.004l-2.09.32c-5.989 1.1-8.764 3.755-12.234 8.563A436 436 0 0 0 261 319l-1.13 1.962c-11.691 20.36-18.27 42.162-19.66 65.62-.195 2.25-.637 4.241-1.21 6.418 10.045-.432 20.055-1.014 30.063-2l2.612-.251c4.297-.354 4.297-.354 8.325-1.749 1.538-.18 3.08-.32 4.625-.437 5.792-.534 11.035-1.888 16.625-3.5 2.143-.608 4.296-1.187 6.469-1.68 6.145-1.41 11.592-3.256 17.273-5.98 3.602-1.68 7.257-3.178 10.945-4.653l1.937-.782c3.009-1.199 5.953-2.3 9.126-2.968v-2l2.117-1.023 2.758-1.352 2.742-1.336c2.478-1.194 2.478-1.194 4.383-3.289a277 277 0 0 1 5.18-2.203c2.41-1.055 4.604-2.387 6.82-3.797.75 1.625.75 1.625 1 4-1.812 3.25-1.812 3.25-4 6h-2l-.754 2.191c-1.37 3.087-2.996 5.179-5.183 7.747-4.155 4.945-8.158 9.982-12.08 15.114-3.07 3.961-6.299 7.542-9.983 10.948h-2l-.687 1.688c-1.687 2.97-3.843 4.957-6.313 7.312l-2.437 2.438L324 414l-1.578 1.648c-1.438 1.487-2.927 2.923-4.422 4.352h-2l-.687 1.688c-2.1 3.698-4.857 6.475-8.547 8.597-3.551 2.202-6.567 4.842-9.704 7.59l-3.59 3.117-1.755 1.525c-4.08 3.524-8.07 6.72-12.717 9.483l-1.437 1.5c-2.218 2.13-4.81 3.15-7.563 4.5l-3.125 2.25C264 462 264 462 261.625 461.75L260 461c1.456-3.112 3.197-5.828 5.188-8.625l1.878-2.656L269 447c3.853-5.431 7.618-10.835 10.957-16.602L281 429h2l-1-4c-2.85.398-5.464.777-8.129 1.887-3.956 1.534-8.012 2.512-12.121 3.55-4.892 1.237-9.722 2.516-14.496 4.157-3.343 1.14-6.562 1.952-10.066 2.469-3.137.472-6.258.95-9.375 1.539-5.61 1.051-10.175 1.707-15.813.398l-2.633-.566c-7.761-1.774-15.005-4.435-22.367-7.434l-2.89-1.117c-22.634-8.967-42.694-22.71-60.356-39.34a115 115 0 0 0-5.875-5.082c-2.59-2.215-4.498-4.29-6.504-7.024-1.687-2.284-3.312-4.375-5.332-6.375-2.319-2.34-4.181-4.826-6.106-7.5l-2.035-2.808C93 354.657 93 354.657 93 352h-2c-6.786-9.08-10.729-20.277-15.027-30.665a401 401 0 0 0-2.649-6.19c-1.81-4.3-3.07-8.658-4.324-13.145l-1.008-3.59c-3.09-11.274-5.161-22.308-6.117-33.973l-.262-2.92c-1.88-22.132.98-44.29 7.387-65.517l1.086-3.629c4.137-13.09 9.768-25.548 16.164-37.684l.96-1.83c1.95-3.606 4.225-6.673 6.79-9.857l1-3h2l.813-2.187c1.186-2.81 2.462-5.297 4.187-7.813h2l2-5h2l.668-1.629c1.783-3.173 4.168-5.674 6.644-8.308l1.436-1.553A485 485 0 0 1 121 109l2.73-2.879C126 104 126 104 128 104v-2a107 107 0 0 1 5.813-4.625l1.795-1.351a925 925 0 0 1 3.657-2.731 461 461 0 0 0 4.555-3.45C155.05 81.397 167.423 75.158 180 69l1.755-.947c5.979-3.173 12.236-5.163 18.683-7.178l3.275-1.05c6.05-1.916 12.061-3.599 18.287-4.825l3.895-.781C251.379 49.544 275.26 49.667 301 52m-25 160 1 4h2l.688 2.563c1.504 3.94 3.439 7.325 6.312 10.437h2v2c8.533 4.927 17.565 7.428 27 10l1-2c-1.03-1.57-2.075-3.13-3.125-4.687l-1.758-2.637c-4.622-5.842-9.815-8.774-16.492-11.738l-4.336-1.973-2.14-.965c-2.216-1.031-4.388-2.13-6.563-3.246-3.22-1.9-3.22-1.9-5.586-1.754m-93 60a418 418 0 0 0-3.5 2.875l-1.969 1.617L176 278v2h-2v2h-2v2h-2c-1.56 1.74-3.05 3.543-4.5 5.375-4.386 5.511-4.386 5.511-6.5 7.625v3h-2c-1.821 2.175-1.821 2.175-3.625 4.875l-1.914 2.742c-1.635 2.201-1.635 2.201-1.461 4.383h-2a805 805 0 0 0-5 10l-1.715 3.441C135.816 336.626 130.865 348.454 130 361c1.647 2.272 2.812 3.35 5 5l2.246 1.871c4.816 3.974 9.755 7.578 15.04 10.902C154 380 154 380 155 382c1.837.952 3.679 1.896 5.543 2.793 5.42 2.663 10.785 5.537 15.906 8.738 2.82 1.624 5.63 2.765 8.676 3.906l3.426 1.29c4.81 1.775 9.623 3.542 14.449 5.273l2-2a131 131 0 0 0-5.562-8.812l-1.254-1.833L197 390h-2c-.26-.733-.518-1.467-.785-2.223-1.248-2.853-2.672-4.825-4.653-7.214-6.711-8.566-6.711-8.566-6.359-13.282.49-3.126 1.11-6.193 1.797-9.281l.45-2.25c1.713-8.304 3.868-16.703 6.55-24.75-3.135.713-6.067 1.71-9.062 2.875l-2.598.992c-2.348 1.137-3.562 2.271-5.34 4.133-1.727.992-1.727.992-3.625 1.875-3.875 1.852-7.584 3.917-11.297 6.074-2.028 1.026-3.859 1.596-6.078 2.051l1.25-3.187c1.819-4.813 3.253-9.726 4.688-14.665C161 328 161 328 162.613 324.781c1.448-2.904 1.669-4.59 1.387-7.781h2l.734-2.055c3.725-10.342 7.691-20.278 12.887-29.968l1.691-3.227 1.614-3.016c1.13-2.874 1.217-3.927.074-6.734"/><path fill="#080808" d="M309 79c5.125.67 9.69 1.76 14.5 3.625l2.064.786C332.876 86.247 339.95 89.576 347 93v2l2.148.281c3.368.85 5.6 2.285 8.477 4.219 2.85 1.905 5.118 3.414 8.375 4.5v2l2.156.727c3.283 1.47 5.6 3.328 8.344 5.648l2.781 2.336L382 117l2.676 2.133c3.905 3.137 7.404 6.155 9.324 10.867h2v2l3 1a104 104 0 0 1 4.75 6.375l1.345 1.926C420.426 163.389 432.28 187.3 437 214l.523 2.91c1.594 9.873 2.072 19.747 2.398 29.731.065 1.952.151 3.904.243 5.855.448 15.668-2.895 31.5-7.164 46.504l-.538 1.946C426.725 321.516 417.127 340.475 405 358l-1.992 2.973-1.883 2.777-1.68 2.484L398 368h-2l-.75 2.375c-1.46 3.064-2.3 3.242-5.25 4.625a88 88 0 0 0-2 4c-4.422 5.617-9.2 10.768-15 15h-2l-1 3a106 106 0 0 1-6.062 4.688c-.568.415-1.136.83-1.721 1.26Q360.114 404.481 358 406l-3-2 1-2h2l.625-2.125c1.552-3.245 3.4-5.02 5.984-7.453 1.607-1.642 2.463-3.334 3.391-5.422l2-1 1-3 4-4c1.235-2.133 1.235-2.133 2-4h2l1-4h2l.293-1.668c.889-2.931 2.332-5.09 4.02-7.644 3.716-5.723 7.258-11.31 9.851-17.653a169 169 0 0 1 1.922-4.476c4.057-9.291 7.185-18.806 9.914-28.559l.753-2.67c7.096-26.182 6.146-53.225-.753-79.33l-.647-2.498c-3.168-12.017-6.907-24.051-13.435-34.697C393 190 393 190 393 187h-2l-.996-2.02c-3.856-7.47-8.484-13.663-14.004-19.98l-2.262-2.633C365.83 153.036 365.83 153.036 356 146v-2l-2.164-.77c-3.067-1.33-5.49-2.978-8.211-4.917-10.219-6.913-21.344-11.433-32.992-15.368C310 122 310 122 309 121a271 271 0 0 1-.098-9.285l.005-2.82c.005-2.986.018-5.972.03-8.957l.014-6.057q.017-7.44.049-14.881"/><path fill="#242424" d="m368 387 2 1c-2.75 5.75-2.75 5.75-5 8l2 1c-1.22 3.662-2.368 4.163-5.562 6.188l-2.504 1.605L357 406l-2-2 1-2h2l.625-2.125c1.55-3.242 3.398-5.015 5.977-7.45 1.613-1.644 2.572-3.278 3.398-5.425"/><path fill="#515151" d="M210 117c1.044 3.133.934 3.99 0 7l3 1h-2v2c-3 2-3 2-6 2 1.31-4.234 2.944-8.074 5-12"/><path fill="#343434" d="m370 354 2 1-1 4c-3.287.8-4.71 1.097-8 0z"/><path fill="#5e5e5e" d="m147 190 1 2-2.375 1.875c-2.593 2.024-2.593 2.024-4.625 4.125l-4-1z"/><path fill="#454545" d="m278 448 3 2-5 5-3-1h2l.938-2.437C277 449 277 449 278 448"/><path fill="#fff" d="m344 181 2 1Z"/><style>path{fill:#000}@media (prefers-color-scheme:dark){path{fill:#fff}}</style></svg>