<svg xmlns="http://www.w3.org/2000/svg" width="32" height="32" viewBox="0 0 487 512"><path fill="#909090" d="M118 0h4c1.593 3.186 1.636 6.683 2 10.188l.27 2.576c.614 6.223.95 12.426 1.168 18.674.372 10.422 1.142 20.795 2 31.187l.186 2.323c3.302 40.833 17.523 77.001 45.3 107.635C174 174 174 174 174 176h2v2c2.71.904 4.196 1.275 7 1 2.478-1.276 2.478-1.276 5-3.062 24.535-16.69 59.042-17.209 87.438-12.313 16.762 3.246 31.338 9.151 45.988 17.809 3.468 1.946 5.759 2.777 9.637 2.129 5.88-.84 9.026 1.163 13.937 4.437v2h2v2h2a452 452 0 0 1 3 5.625l1.688 3.164C355 204 355 204 354.863 206.961c.201 4.472 2.5 6.718 5.325 10.039l1.462 1.79a323 323 0 0 0 5.829 6.913C371 229.797 371 229.797 371 232h2l1.688 2.375c2.867 3.255 5.153 3.683 9.312 4.625 1 1 1 1 1.063 3.563L385 245l-1.961.726c-2.221 1.067-2.221 1.067-2.574 3.237l-.082 2.416c-.24 3.895-.675 7.623-1.39 11.46l-.552 3.034q-.565 3.06-1.156 6.117c-1.608 8.996-2.407 17.128 2.867 24.936 1.646 4.027.993 8.46.856 12.738-.01 3.899.616 6.724 1.992 10.336h2c2.599 2.27 3.924 4.743 5 8-.024 5.457-.953 10.657-2 16l-.61 3.34c-.71 3.576-1.526 7.119-2.39 10.66l-.625 2.576C373.53 404.75 373.53 404.75 361 416c-2.18 1.184-2.18 1.184-4 2l3 2a67 67 0 0 1 1.5 7.188l.75 4.367.375 2.245c1.332 7.814 2.85 15.585 5.063 23.2 2.121 7.6 1.505 12.877-1.688 20-3.327 1.664-6.416 1.59-10 1-10.65-4.148-20.456-10.85-29.441-17.836-1.568-1.242-1.568-1.242-3.559-2.164v-2c-7.017-2.444-12.027-1.743-19.06.403-5.211 1.537-10.132 2.015-15.574 2.244-15.373.709-30.532 3.891-45.633 6.687-18.789 3.473-37.662 6.199-56.619 8.584-6.94.886-13.83 1.978-20.71 3.256-5.194.931-5.194.931-7.404-.174 1.787-9.447 9.116-17.729 15.18-24.82 1.847-2.043 1.847-2.043 2.82-4.18h2c1.257-2.906 2-4.796 2-8-6.082-2.575-12.163-5.066-18.375-7.312-6.27-2.375-11.89-5.497-17.629-8.918-2.303-1.361-4.584-2.62-6.996-3.77v-2l-1.664-.285c-2.986-.914-5.128-2.394-7.711-4.152l-3.191-2.172a888 888 0 0 1-15.737-11.178 189 189 0 0 0-3.671-2.555c-1.709-1.172-3.372-2.41-5.026-3.658v-2h-2c-7.106-11.695-7.106-11.695-6-18 1.632-5.788 3.704-11.348 6.063-16.875 2.53-6.173 3.664-12.6 4.937-19.125l.594-2.52c3.14-13.55 2.686-26.871.406-40.48l-.512-3.082c-.82-4.635-.82-4.635-2.543-8.98-1.307-2.68-1.078-5.002-.945-7.938l3.625-1.125c4.639-1.702 7.039-4.3 10.375-7.875h2v-2c1.666-1.43 1.666-1.43 3.96-3.098 4.965-3.754 9.308-7.907 13.665-12.34l2.156-2.158a233 233 0 0 0 11.69-12.662c1.459-1.662 2.877-3.27 4.529-4.742h2l2-6-1.54-1.504c-9.57-9.445-9.57-9.445-12.46-13.496v-2h-2c-1.945-2.117-1.945-2.117-4.125-4.875l-2.195-2.742C132 196 132 196 132 194h-2c-1.508-1.68-1.508-1.68-3.125-3.875l-1.633-2.18C124 186 124 186 124 184h-2c-1.385-1.554-1.385-1.554-2.977-3.734l-1.77-2.41-1.878-2.606-1.925-2.661q-1.892-2.625-3.773-5.257a312 312 0 0 0-4.029-5.457c-8.796-12.163-17.372-28.257-16.187-43.605.683-4.141 1.533-8.156 2.687-12.192.947-3.42 1.626-6.842 2.29-10.328 2.151-10.912 4.888-21.566 8.087-32.21 3.105-10.345 5.73-20.653 7.79-31.259 1.106-5.686 2.458-11.229 4.025-16.806.803-3.01 1.338-6.018 1.785-9.1.773-5.273.773-5.273 1.875-6.375"/><path fill="#939393" d="M118 0h4c1.593 3.186 1.636 6.683 2 10.188l.27 2.576c.614 6.223.95 12.426 1.168 18.674.372 10.422 1.142 20.795 2 31.187l.186 2.323c3.302 40.833 17.523 77.001 45.3 107.635C174 174 174 174 174 176h2v2c2.71.904 4.196 1.275 7 1 2.478-1.276 2.478-1.276 5-3.062 24.535-16.69 59.042-17.209 87.438-12.313 16.762 3.246 31.338 9.151 45.988 17.809 3.468 1.946 5.759 2.777 9.637 2.129 5.88-.84 9.026 1.163 13.937 4.437v2h2v2h2a452 452 0 0 1 3 5.625l1.688 3.164C355 204 355 204 354.863 206.961c.201 4.472 2.5 6.718 5.325 10.039l1.462 1.79a329 329 0 0 0 5.8 6.882c2.667 3.105 4.184 5.18 4.55 9.328-2.833 1.416-5.475 1.346-8.625 1.563l-3.602.253L357 237v2l-2.352.335q-5.325.766-10.648 1.54l-3.7.527c-7.517 1.086-7.517 1.086-14.925 2.73C322 245 322 245 318 245v2c-4.205 1.964-8.275 3.795-12.75 5.063-3.206.768-3.206.768-5.574 2.363-2.86 1.683-5.583 2.686-8.738 3.699l-3.098 1.008c-2.84.867-2.84.867-5.15 1.297L281 261l-1 3c-2.176 1.472-4.433 2.696-6.746 3.938-2.826 1.556-5.079 2.887-7.379 5.187-2.2 2.2-3.949 2.854-6.875 3.875l-3.375 1.688c-4.375 1.584-6.171 1.67-10.625.312-8.035-4.606-14.957-11.046-22-17q-2.964-2.445-5.937-4.875l-2.59-2.117a198 198 0 0 0-5.29-4.14L207 249v-2l-1.625-.687c-5.209-2.88-9.206-7.137-13.375-11.313q-2.4-2.367-4.8-4.73l-5.512-5.458-2.764-2.712c-5.108-5.072-9.806-10.249-14.224-15.932-2.004-2.556-4.16-4.93-6.387-7.293C149 188.66 149 188.66 149 184h-2l-3-5a142 142 0 0 0-5-5l-4-4 1.438 2.75c1.562 3.25 1.562 3.25 2 5.375.798 2.663 2.595 3.971 4.562 5.875v2h2q1.507 2.684 3 5.375l1.688 3.023C151 197 151 197 151 199l1.875.188L155 200q1.021 2.491 2 5c1.933 1.092 1.933 1.092 4 2 1.937 2.003 2.972 3.118 3.063 5.938-1.738 3.372-3.899 5.032-7.063 7.062-5.076-.97-7.553-3.152-10.875-7l-2.367-2.687C142 208 142 208 142 206h-2c-1.945-2.117-1.945-2.117-4.125-4.875l-2.195-2.742C132 196 132 196 132 194h-2c-1.508-1.68-1.508-1.68-3.125-3.875l-1.633-2.18C124 186 124 186 124 184h-2c-1.385-1.554-1.385-1.554-2.977-3.734l-1.77-2.41-1.878-2.606-1.925-2.661q-1.892-2.625-3.773-5.257a312 312 0 0 0-4.029-5.457c-8.796-12.163-17.372-28.257-16.187-43.605.683-4.141 1.533-8.156 2.687-12.192.947-3.42 1.626-6.842 2.29-10.328 2.151-10.912 4.888-21.566 8.087-32.21 3.105-10.345 5.73-20.653 7.79-31.259 1.106-5.686 2.458-11.229 4.025-16.806.803-3.01 1.338-6.018 1.785-9.1.773-5.273.773-5.273 1.875-6.375"/><path fill="#fbfbfb" d="M169 216c1.586 1.61 1.586 1.61 3.375 3.75 1.963 2.319 3.884 4.502 6.063 6.625C180 228 180 228 180 230l1.688.688c2.32 1.316 3.915 2.82 5.742 4.746 2.772 2.765 5.799 5.256 8.777 7.796L198 245v2l4 2v2l1.688.813c3.638 1.868 6.706 3.57 9.597 6.511 2.75 2.71 5.591 4.913 8.715 7.176 4.024 2.916 7.54 5.933 11 9.5a69 69 0 0 0 8.313 6.063L244 283v3a794 794 0 0 1-5.312 3l-2.989 1.688C233 292 233 292 230 292v2c-1.645 1.29-1.645 1.29-3.812 2.625l-2.145 1.352C222 299 222 299 219 299v2l-6 2v2a97 97 0 0 1-5.687 4.5l-1.608 1.223c-2.477 1.842-4.583 3.238-7.537 4.183L196 316c-4.19 13.414 4.063 32.346 9.758 44.336 5.29 11.347 8.787 23.404 12.504 35.33a287 287 0 0 0 1.906 5.772c2.47 7.604 1.94 15.666 1.832 23.562l-2.5.48c-7.603 1.536-14.898 3.453-22.256 5.894-2.88.945-5.188 1.626-8.244 1.626v2l-2.437.938c-2.454.825-2.454.825-3.563 2.062-15.537 1.726-32.984-10.72-46-18v-2l-1.664-.285c-2.986-.914-5.128-2.394-7.711-4.152l-3.191-2.172a888 888 0 0 1-15.737-11.178 189 189 0 0 0-3.671-2.555c-1.709-1.172-3.372-2.41-5.026-3.658v-2h-2c-7.106-11.695-7.106-11.695-6-18 1.632-5.788 3.704-11.348 6.063-16.875 2.53-6.173 3.664-12.6 4.937-19.125l.594-2.52c3.14-13.55 2.686-26.871.406-40.48l-.512-3.082c-.82-4.635-.82-4.635-2.543-8.98-1.307-2.68-1.078-5.002-.945-7.938l3.625-1.125c4.639-1.702 7.039-4.3 10.375-7.875h2v-2c1.666-1.43 1.666-1.43 3.96-3.098 4.965-3.754 9.308-7.907 13.665-12.34l2.156-2.158a224 224 0 0 0 11.726-12.741c1.956-2.179 4.17-3.89 6.493-5.663l2.688-2.75C159 223 159 223 161 223v-2c5.476-5 5.476-5 8-5"/><path fill="#7d7d7d" d="m236.813 427.625 3.506-.042c6.025.033 11.143.458 16.767 2.695 2.027.765 3.969 1.17 6.101 1.534 10.953 2.32 27.856 9.045 35.813 17.188 2.31.744 4.643 1.422 7 2-.732 1.939-.732 1.939-2 4-1.936.698-1.936.698-4.29.977l-2.605.343-2.73.305q-2.645.327-5.29.664l-2.64.337c-2.758.422-5.403 1.133-8.094 1.855-3.104.685-6.214 1.065-9.367 1.464-7.277.924-14.468 2.178-21.675 3.542-20.305 3.83-40.695 6.852-61.195 9.43a371 371 0 0 0-20.71 3.257c-5.194.931-5.194.931-7.404-.174 1.656-8.918 8.505-17.878 15-24a261 261 0 0 1 5-3c1.034-1.646 2.04-3.31 3-5h2c.38-.915.38-.915.77-1.848 4.397-7.692 17.253-9.798 25.23-12.152l3.129-.98c8.186-2.183 16.247-2.329 24.684-2.395"/><path fill="#0f0f0f" d="m134 168 5 5 1.813 1.688C142 176 142 176 142 178l3 1c1.188 2.563 1.188 2.563 2 5h2c1.086 1.73 1.086 1.73 2.375 4.188 3.05 5.283 6.74 9.465 10.958 13.817 3.018 3.13 5.77 6.357 8.444 9.788 4.27 5.401 8.997 10.207 13.91 15.02l2.51 2.482q2.373 2.346 4.754 4.684a386 386 0 0 1 4.881 4.908c1.969 1.919 3.93 3.525 6.168 5.113 3.351 2.378 6.1 5.09 9 8 2.215 2 4.478 3.94 6.75 5.875l1.865 1.594a296 296 0 0 0 12.569 10.144 134 134 0 0 1 4.441 3.575c6.362 4.949 6.362 4.949 14.063 5.75 3.578-.592 5.514-1.607 8.312-3.938l3.688-1 3.312-1 1-3 3-1 2-2a95 95 0 0 1 3.563-2c3.463-1.595 3.463-1.595 4.437-4 1.934-.93 1.934-.93 4.438-1.875l2.718-1.047L291 257q2.721-1.054 5.438-2.125l2.433-.945c2.358-.956 2.358-.956 5.129-2.93a93 93 0 0 1 4.938-1.562c.854-.25 1.709-.498 2.59-.754A215 215 0 0 1 318 247v-2c27.844-6.437 27.844-6.437 39-6v-2q3.188-.502 6.375-1l3.586-.562C370 235 370 235 372 235l-1-3h2l1.688 2.375c2.86 3.247 5.148 3.744 9.312 4.625-2.56 2.56-3.919 2.428-7.484 2.824l-3.481.418-3.785.446c-10.94 1.395-21.64 3.284-32.375 5.812l-3.71.862c-9.776 2.36-18.962 5.601-28.165 9.638l-2.812 1.121c-5.444 2.184-10.351 4.479-15.235 7.715-2.066 1.231-4.07 2.03-6.328 2.851-6.118 2.291-11.663 5.593-17.292 8.872-6.962 3.996-6.962 3.996-11.333 4.441v2h-3v2l-1.68.805-2.195 1.07-2.18 1.055c-2.096 1.036-2.096 1.036-3.945 3.07l-2.187.844c-3.561 1.464-6.628 3.526-9.813 5.656-3.868 2.587-7.577 4.959-12 6.5v2c-2.082 1.621-2.082 1.621-4.812 3.438-4.503 2.83-4.503 2.83-8.188 6.562-.25 2.626-.25 2.626 0 5 .88.447 1.76.895 2.668 1.355l3.52 1.832 3.48 1.793c14.194 8.603 22.253 27.622 26.64 42.895 1.97 8.902.474 16.565-2.308 25.125h-1l-.12-2.136c-.193-3.248-.411-6.493-.63-9.739l-.187-3.36c-.5-7.083-1.536-13.498-5.063-19.765l-2-1q-.51-2.999-1-6l-2-2v-4h-2c-3-4.385-3-4.385-3-7l-3 1-.312-1.812c-1.373-4.369-4.85-6.035-8.688-8.188a174 174 0 0 0-4-2c-1.622 5.271-.32 8.37 1.895 13.145.974 2.014.974 2.014 3.105 2.855l-.187 3.25c.2 4.005.682 4.844 3.187 7.75a70 70 0 0 1 1 4c1.156 2.544 2.439 4.658 4 7q.304 2.423.594 4.848c.981 5.199 3.143 10.276 5.265 15.109 4.231 9.909 4.539 21.41 4.141 32.043l3.148-1.61c20.89-10.61 20.89-10.61 29.852-11.39a91 91 0 0 1-4 4h-2l-.312 1.875C252 416 252 416 249 418c-.733 3.066-.733 3.066-1 6l3.5.375c7.121.763 13.791 2.946 20.438 5.5l2.124.809c5.059 1.942 10.05 3.972 14.938 6.316l2.785 1.332c9.026 4.414 17.608 9.498 26.215 14.668-2.592 1.296-5.13 1.36-7.977 1.684-2.532.396-4.677 1.302-7.023 2.316-4.14 1.057-8.05 1.102-12.312 1.063l-3.801-.028L284 458v-1l20-3 1-3-3.25-.25c-4.172-.834-5.026-1.662-7.75-4.75-3.773-2.55-7.826-4.231-12-6l-1.968-.85c-8.905-3.844-17.525-7.07-27.032-9.15l-3-1c-13.716-.851-27.773-1.027-41 3l-2.734.727c-9.708 2.676-19.49 6.529-26.266 14.273l-1 2.125c-1.262 2.367-2.556 2.897-5 3.875l2-5h2c1.257-2.906 2-4.796 2-8l-2-2c3.648-1.273 7.194-2.328 11-3v-2q4.53-1.44 9.063-2.875l2.568-.816a1050 1050 0 0 1 5.037-1.581 576 576 0 0 0 6.016-1.923c3.55-.862 6.677-.954 10.316-.805-.253-3.293-.53-6.584-.812-9.875l-.213-2.781c-.57-6.462-1.916-12.207-3.975-18.344l-1.006-3.152a1237 1237 0 0 0-3.369-10.348l-1.133-3.512c-2.05-6.212-4.343-12.016-7.376-17.812-5.732-11.18-10.608-26.444-10.116-39.176 1.338-3.497 2.962-4.829 6.145-6.785 3.135-2.053 5.992-4.468 8.902-6.824C211 305 211 305 213 305v-2l6-2v-2a805 805 0 0 1 4.375-2.5l2.46-1.406C228 294 228 294 230 294v-2q2.934-1.507 5.875-3l3.305-1.687C242 286 242 286 244 286c-1.498-4.662-4.885-5.866-9-8v-2l-2.187-.687c-2.72-1.27-4.204-2.586-6.227-4.75-4.205-4.143-9.064-7.796-13.895-11.18L211 258v-2l-2.187-.687c-2.695-1.258-4.223-2.544-6.231-4.692-2.1-2.151-4.337-4.122-6.582-6.121-7.39-6.629-7.39-6.629-10-9.5v-2l-1.687-.687c-2.972-1.687-4.958-3.843-7.313-6.313l-2.812-2.687C172 221 172 221 172 219l-3-1v-2l-2.875 2.5C163.25 221 163.25 221 161 221v2a141 141 0 0 1-5 5l-2-1 2-4-3-4 2.875-.312c3.416-.373 3.416-.373 5.125-3.688h2c-.52-4.133-1.656-6.175-4.5-9.187-3.434-3.68-3.434-3.68-4.5-5.813l-3-1c-1.605-2.434-1.605-2.434-3.187-5.437l-1.606-2.997C145 188 145 188 145 186h-2l-.75-2.375c-1.458-3.061-2.33-3.212-5.25-4.625-.687-1.812-.687-1.812-1-4-.394-2.638-.394-2.638-1-5l-2-1z"/><path fill="#2c2c2c" d="M378 296c1.496 1.078 1.496 1.078 3 3 .223 3.11.223 3.11.063 6.75-.126 5.262.069 9.345 1.937 14.25h2c2.599 2.27 3.924 4.743 5 8-.024 5.457-.953 10.657-2 16l-.61 3.34c-.71 3.576-1.526 7.119-2.39 10.66l-.625 2.576C373.53 404.75 373.53 404.75 361 416c-2.18 1.184-2.18 1.184-4 2l3 2a76 76 0 0 1 1.75 7.875l.418 2.184c.634 3.548 1.158 6.518-.168 9.941l-.605-2.336c-1.92-3.667-3.838-4-7.707-5.289-4.265-1.449-7.86-3.02-11.688-5.375-6.205-2.679-12.444-4.482-19.102-5.605C321 421 321 421 320 420a158 158 0 0 0-6.66-.316l-2.014-.063q-3.195-.097-6.389-.183l-4.322-.131q-5.307-.161-10.615-.307c7.465-3.886 15.715-4.272 24-4v-2l2.938-.516c8.032-1.442 15.947-3.097 23.832-5.213 3.247-.856 5.833-1.271 9.23-1.271v-2l1.574-.664 2.113-.961 2.075-.914c5.805-3.789 8.787-9.9 11.863-15.899l1.156-2.197c4.65-8.906 4.65-8.906 7.281-18.553.734-4.438.734-4.438 1.899-6.578 1.602-3.444 2.006-7.064 2.601-10.796C381.89 339.33 381.89 339.33 383 336l-1.355 1.355L356 363l-2.187 2.313C352 367 352 367 350 367l1-6c-4.131 2.68-7.971 5.534-11.812 8.625-14.58 11.396-30.92 18.997-48.188 25.375l-2.61.984-2.14.766-2.172.797c-2.372.517-3.798.213-6.078-.547 5.031-2.814 10.083-5.567 15.258-8.11l2.19-1.076a647 647 0 0 1 4.331-2.097c3.767-1.629 3.767-1.629 6.221-4.717h3l1-3c3.386-3.181 6.996-5.02 11.137-6.984 2.379-1.297 4.03-3.042 5.863-5.016h2v-2h2v-2h2l.41-2.02c1.815-7.768 4.996-13.51 9.59-19.98l2.023-2.855A659 659 0 0 1 351 329l1.664-2.293c2.863-3.913 5.857-7.313 9.336-10.707a517 517 0 0 0 3.313-3.875c3.536-4.08 7.327-7.918 11.687-11.125h2z"/><path fill="#202020" d="M378 296c1.496 1.078 1.496 1.078 3 3 .223 3.11.223 3.11.063 6.75-.126 5.262.069 9.345 1.937 14.25h2l-1 2-6-1-1.066 1.8a578 578 0 0 1-10.32 16.657 168 168 0 0 0-3.184 5.23c-1.784 2.886-4.027 4.91-6.43 7.313a950 950 0 0 0-3.5 4.688C339.59 374.204 314.654 386.576 294 394l-3.133 1.16c-9.085 3.23-9.085 3.23-12.867 1.84 5.031-2.814 10.083-5.567 15.258-8.11l2.19-1.076a647 647 0 0 1 4.331-2.097c3.767-1.629 3.767-1.629 6.221-4.717h3l1-3c3.386-3.181 6.996-5.02 11.137-6.984 2.379-1.297 4.03-3.042 5.863-5.016h2v-2h2v-2h2l.41-2.02c1.815-7.768 4.996-13.51 9.59-19.98l2.023-2.855A659 659 0 0 1 351 329l1.664-2.293c2.863-3.913 5.857-7.313 9.336-10.707a517 517 0 0 0 3.313-3.875c3.536-4.08 7.327-7.918 11.687-11.125h2z"/><path fill="#171717" d="m384 242 1 3-1.961.727c-2.22 1.066-2.22 1.066-2.576 3.234l-.084 2.414c-.24 3.9-.664 7.652-1.352 11.5l-.537 3.047a1698 1698 0 0 1-1.117 6.156C376.256 278.46 375.75 284.523 376 291h-1c-.748-7.03-1.119-13.933-1-21v-3l3-1-.035-2.3c-.01-.995-.018-1.989-.027-3.012l-.036-2.989C377 255 377 255 378 252q-4.283.934-8.562 1.875l-2.424.527A200 200 0 0 0 353 258c-3.577 1.04-7.108 2.023-10.75 2.813-4.366 1.074-8.268 2.919-12.324 4.832-2.966 1.373-5.962 2.623-8.988 3.855-5.455 2.253-10.691 4.805-15.938 7.5a3635 3635 0 0 1-6.375 3.188l-2.96 1.48a303 303 0 0 1-4.93 2.414c-1.814.836-1.814.836-3.11 2.418-2.264 2.09-4.702 2.655-7.625 3.5 2.558 1.279 3.299.772 6 0 3.122-.714 6.193-1.13 9.375-1.437 4.089-.438 7.744-1.189 11.625-2.563l1-2-2-1 1.375-1.25c1.717-1.633 1.717-1.633 2.375-3.687 1.94-3.201 4.89-4.658 8.25-6.063 2.37-.556 4.563-.801 7-1l-1 1.813c-1.208 2.24-1.208 2.24-1 5.187-8.488 8.472-17.776 14.937-29.719 16.445-6.302 1.066-12.268 3.438-18.281 5.555q-2.467.787-4.937 1.563c-2.856.93-5.322 2.093-7.938 3.562-4.796 2.544-9.782 2.679-15.125 2.875 1.323-3.153 2.377-4.542 5.438-6.062 2.65-1.405 4.524-2.714 6.562-4.938 3.485-3.004 6.911-5.094 11.063-7.062 4.093-1.927 4.093-1.927 7.859-4.399 3.433-2.542 7.36-4.2 11.209-6.021 3.572-1.552 3.572-1.552 5.869-4.518h2v-2c4.385-3 4.385-3 7-3v-2c7.778-3.61 15.703-6.615 23.86-9.258l2.015-.656c1.912-.62 3.827-1.23 5.742-1.84 3.309-1.081 3.309-1.081 5.707-2.734 3.983-2.25 8.18-3.111 12.613-4.137l2.818-.665c6.576-1.488 12.882-2.343 19.628-2.57 2.729-.03 2.729-.03 5.617-1.14z"/><path fill="#3b3b3b" d="M118 0h4c1.593 3.186 1.636 6.683 2 10.188l.27 2.576c.614 6.223.95 12.426 1.168 18.674.372 10.422 1.142 20.795 2 31.187l.186 2.323c1.037 12.815 2.291 25.39 6.064 37.74 2.444 8.048 2.444 8.048 1.312 10.312-4.909-8.971-6.926-18.004-8.469-28.055-.501-2.78-1.206-5.37-2.031-8.07-4.57-16.21-4.344-34.18-5.5-50.875q-.074 9.387-.11 18.774-.015 3.183-.04 6.366c-.101 12.48.19 24.52 2.15 36.86q.324 2.35.64 4.7.299 1.995.61 3.987l.353 2.264c1.503 9.232 3.47 18.379 5.416 27.526l.774 3.652.704 3.283C130 136 130 136 130 138h-2l-1-7-5 1v-2h2v-2l-2-1 1-4-2-1 .063-3.375c.2-3.457.2-3.457-1.063-5.625a101 101 0 0 1-.5-4.437c-.256-2.778-.609-4.89-1.5-7.563-.204-1.75-.365-3.505-.5-5.262l-.25-3.142-.25-3.284a4206 4206 0 0 0-.5-6.386l-.246-3.117c-.203-2.25-.496-4.491-.817-6.727-.778-5.866-.497-11.803-.437-17.707.054-9.532-.096-18.881-1-28.375l-3 12h-1c.647-7.017 1.903-13.751 3.438-20.625l.658-3.023C115.236 10.177 116.472 5.074 118 0"/><path fill="#676767" d="M363 222c4.369 3.301 6.914 5.785 9 11v2c-2.833 1.416-5.475 1.346-8.625 1.563l-3.602.253L357 237v2l-2.352.335q-5.325.766-10.648 1.54l-3.7.527c-7.517 1.086-7.517 1.086-14.925 2.73C322 245 322 245 318 245v2c-4.205 1.964-8.275 3.795-12.75 5.063-3.206.768-3.206.768-5.574 2.363-2.86 1.683-5.583 2.686-8.738 3.699l-3.098 1.008c-2.84.867-2.84.867-5.15 1.297L281 261l-1 3c-2.176 1.472-4.433 2.696-6.746 3.938-2.826 1.556-5.079 2.887-7.379 5.187-2.2 2.2-3.949 2.854-6.875 3.875l-3.375 1.688c-4.084 1.478-6.438 1.252-10.625.312v-3l1.688-.7c6.708-2.866 13.242-5.935 18.312-11.3l1 2 1.46-1.094 1.915-1.406 1.898-1.406C273 261 273 261 275 261l1-2c17.6-10 17.6-10 23-10v-2c7.732-2.894 15.314-5.501 23.379-7.324 2.651-.62 2.651-.62 5.187-1.727 2.389-.931 4.268-1.266 6.809-1.449 5.095-.482 9.7-1.789 14.5-3.562 3.386-1.016 6.563-1.395 10.074-1.692 2.248-.2 2.248-.2 5.051-1.246 2.188.438 2.188.438 4 1l-1.375-2.25A89 89 0 0 1 363 222"/><path fill="#050505" d="M378 308h2l.402 1.863.536 2.45.527 2.425c.534 2.407.534 2.407 1.535 5.262h2l-1 2-6-1-1.066 1.8a578 578 0 0 1-10.32 16.657 168 168 0 0 0-3.184 5.23c-1.784 2.886-4.027 4.91-6.43 7.313a950 950 0 0 0-3.5 4.688C339.59 374.204 314.654 386.576 294 394l-3.133 1.16c-9.085 3.23-9.085 3.23-12.867 1.84 20.11-11.204 20.11-11.204 29.746-14.758 5.977-2.352 11.009-5.831 16.254-9.492q2.776-1.92 5.563-3.828l2.44-1.7C334 366 334 366 336 366l1-3h2l1-3 2.438-1.937c2.455-1.977 3.432-3.188 4.562-6.063h2l1-3c1.438-1.687 1.438-1.687 3-3h2l.75-1.625c1.557-2.957 3.284-5.672 5.25-8.375h2c1.068-2.06 2.024-4.066 2.813-6.25 1.363-3.158 3.098-5.905 4.968-8.785 1.203-1.94 2.23-3.91 3.219-5.965h2l.438-2.375C377 310 377 310 378 308"/><path fill="#060606" d="m361 413 2 1-6 4 3 2a76 76 0 0 1 1.75 7.875l.418 2.184c.634 3.548 1.158 6.518-.168 9.941l-.605-2.336c-1.92-3.667-3.838-4-7.707-5.289-4.265-1.449-7.86-3.02-11.688-5.375-6.205-2.679-12.444-4.482-19.102-5.605C321 421 321 421 320 420a158 158 0 0 0-6.66-.316l-2.014-.063q-3.195-.097-6.389-.183l-4.322-.131q-5.307-.161-10.615-.307c3.092-1.614 5.738-2.47 9.188-3.062l2.667-.473c7.712-1.14 15.222-1.628 23.02-1.59l2.944.006c5.66.034 11.228.263 16.857.889 5.994.594 10.907.956 16.324-1.77"/><path fill="#1e1e1e" d="M378 320c5.5.611 5.5.611 7.688 2.313L387 324l1.75 1.938C390 328 390 328 389.688 330.25L389 332l-1-2-1.375 2-1.625 2h-2l-.8 1.828c-1.258 2.276-2.354 3.34-4.387 4.922-5.009 4.122-9.082 8.975-13 14.125-1.813 2.125-1.813 2.125-3.7 3-2.57 1.368-3.907 3-5.738 5.25A71 71 0 0 1 352 367h-2l.5-2.812c.577-3.144.577-3.144.5-6.188 1.898-2.7 1.898-2.7 4.375-5.687l2.46-3.012L360 347h2l.332-1.738c.754-2.555 1.839-4.264 3.356-6.45l1.625-2.37L369 334c4.657-6.9 4.657-6.9 9-14"/><path fill="#999" d="M385 240c-1.455 4.607-1.455 4.607-3.582 6.14-3.414 1.214-6.774 1.16-10.356 1.235-8.24.293-16.09 1.575-24.156 3.253l-2.554.532-2.256.489C340 252 340 252 336 252v2l-2.422.664c-7.156 2.066-13.565 4.616-20.117 8.164C311 264 311 264 308 264v2h-9c2.622-5.099 5.911-8.823 11.297-10.875q2.41-.722 4.848-1.352c2.314-.627 4.51-1.346 6.77-2.14 6.432-2.164 13.033-3.638 19.647-5.133l2.042-.465C357.096 242.986 371.12 240 385 240"/><path fill="#787878" d="M294 417v1l2.276.06c3.429.096 6.858.205 10.286.315 1.182.03 2.363.062 3.58.094 5.983.2 11.208.54 16.858 2.531l3.316.965c1.072.32 2.143.642 3.247.973l3.253.964c3.244 1.119 6.142 2.519 9.184 4.098q2.806 1.296 5.625 2.563A876 876 0 0 1 357 433c.733.3 1.467.598 2.223.906 2.27 1.397 2.722 2.54 3.59 5.031l.769 2.09C364 443 364 443 363 446l-.75-2.75c-3.478-5.024-8.522-5.74-14.25-7.25v-2h-6v-2l-3.125-.375C335 431 335 431 331.938 429.938c-3.139-1.002-5.668-1.014-8.938-.938l-1-1-3.312-.437C315 427 315 427 313.058 426.003c-2.321-1.131-4.117-1.384-6.683-1.6-.871-.08-1.743-.16-2.64-.24l-2.735-.226q-2.688-.232-5.375-.472l-2.398-.2c-2.147-.255-4.145-.692-6.227-1.265l-1-4c2.928-.976 4.956-1.082 8-1"/><path fill="#101010" d="M280 166c15.303.805 28.504 7.81 41.438 15.438 3.462 1.947 5.751 2.772 9.625 2.125 5.88-.84 9.026 1.163 13.937 4.437v2h2v2h2a452 452 0 0 1 3 5.625l1.688 3.164C355 204 355 204 354.968 207.094c.04 3.711 1.162 4.988 3.532 7.781l1.969 2.367L362 219c-3 0-3 0-4.578-1.504l-1.672-2.059a136 136 0 0 0-9.145-9.859 161 161 0 0 1-3.918-4.016c-3.287-3.134-6.804-5.9-10.382-8.695C330 191 330 191 328.398 189.375c-1.91-1.879-4.176-2.992-6.511-4.27-1.892-1.108-3.582-2.34-5.324-3.667-3.019-2.205-5.938-3.488-9.461-4.692-2.263-.803-4.417-1.751-6.602-2.746-6.724-3.022-13.316-5.332-20.5-7z"/><path fill="#212121" d="M118 0h4c1.593 3.186 1.636 6.683 2 10.188l.27 2.576c.614 6.223.95 12.426 1.168 18.674.372 10.422 1.142 20.795 2 31.187l.186 2.323c1.037 12.815 2.291 25.39 6.064 37.74 2.444 8.048 2.444 8.048 1.312 10.312-4.909-8.971-6.926-18.004-8.469-28.055-.501-2.78-1.206-5.37-2.031-8.07-5.383-18.95-4.708-40.342-4.5-59.875h2c-.525-6.29-.525-6.29-3-12l-2 7h-1q.21-2.72.438-5.437c.08-1.01.162-2.02.246-3.06C117 1 117 1 118 0"/><path fill="#707070" d="m383 335 2 1-1.402 2.984c-1.722 4.015-2.483 7.97-3.16 12.266-1.175 7.355-1.175 7.355-3.438 10.75a624 624 0 0 0-.655 5.873c-.549 3.383-1.96 6.336-3.47 9.377l-.943 1.945C362.386 398.597 362.386 398.597 355 403c-2.937.875-2.937.875-5 1v2c-11.407 3.666-23.933 7-36 7v2l-19 2c4.298-4.298 4.454-4.446 10-4.5 5.908-.265 10.607-1.55 16.125-3.582 3.672-1.172 7.178-1.528 11.012-1.742 1.877.022 1.877.022 2.863-1.176l3-.187c4.415-.555 7.38-2.798 10.938-5.34C351 399 351 399 353.625 397.563c9.897-6.511 13.498-15.5 16.438-26.5C371 368 371 368 373 366a89 89 0 0 0 1.5-6l.777-3.531a557 557 0 0 0 1.786-8.969c.994-5.028 1.935-9.044 5.937-12.5"/><path fill="#5f5f5f" d="m325 272-2 3v3c-8.488 8.472-17.776 14.937-29.719 16.445-6.302 1.066-12.268 3.438-18.281 5.555q-2.467.787-4.937 1.563c-2.876.94-5.41 2.113-8.063 3.562-4.214 2.226-8.287 2.657-13 2.875a424 424 0 0 1 8.313-5.375c3.117-1.975 6.212-3.965 9.25-6.062C269 295 269 295 271 295v2q2.596-1.151 5.188-2.312l2.917-1.301c2.891-1.3 2.891-1.3 5.325-3.02 3.27-1.74 5.82-1.805 9.507-1.93 4.732-.17 8.668-.597 13.063-2.437l1-2-2-1 1.375-1.25c1.717-1.633 1.717-1.633 2.375-3.687 2.395-3.952 6.78-5.638 11.063-6.875C323 271 323 271 325 272"/><path fill="#303030" d="M371 232h2l1.688 2.375c2.86 3.247 5.148 3.744 9.312 4.625-2.518 2.518-3.844 2.451-7.34 2.887l-3.22.404c-1.115.13-2.23.262-3.377.397l-3.366.431c-8.306 1.011-8.306 1.011-11.697-.119l2-3-3.36.656-4.39.844-2.21.434c-3.433.655-6.532 1.066-10.04 1.066v2l-2.93.516c-7.788 1.428-14.787 3.298-22.07 6.484l-3.062 1c-4.11 1.399-7.996 3.188-11.938 5l-3.598 1.64c-6.424 2.951-12.718 5.924-18.765 9.61L273 270l-2-1c1.856-1.856 3.283-2.782 5.563-4 3.463-1.595 3.463-1.595 4.437-4 1.934-.93 1.934-.93 4.438-1.875l2.718-1.047L291 257q2.721-1.054 5.438-2.125l2.433-.945c2.358-.956 2.358-.956 5.129-2.93a93 93 0 0 1 4.938-1.562c.854-.25 1.709-.498 2.59-.754A215 215 0 0 1 318 247v-2c27.844-6.437 27.844-6.437 39-6v-2q3.188-.502 6.375-1l3.586-.562C370 235 370 235 372 235z"/><path fill="#4b4b4b" d="M389 329c.395 12.132.395 12.132-2 18l-2 1.875c-2.612 2.775-2.825 5.112-3.516 8.785-.573 2.77-1.522 5.335-2.562 7.961-1.69 4.361-3.192 8.794-4.738 13.207-2.712 7.267-6.834 13.783-11.184 20.172l-2 3.25c-2.073 2.85-2.93 3.346-6 4.75l-2.059 1.219c-11.648 6.274-25.99 5.925-38.941 5.781 2.855-1.904 3.873-2.314 7.098-2.746l2.415-.345 2.55-.346c6.195-.9 12.102-1.915 18.027-4.012C346 406 346 406 350 406v-2l1.574-.664 2.113-.961 2.075-.914c5.805-3.789 8.787-9.9 11.863-15.899l1.156-2.197c4.65-8.906 4.65-8.906 7.281-18.553.735-4.44.735-4.44 1.903-6.578 1.9-4.1 2.212-8.683 2.89-13.123.59-3.64 1.071-6 3.145-9.111l-1-2c4.875-5 4.875-5 6-5"/><path fill="#7a7a7a" d="m365 248-1.769.38c-13.81 2.805-13.81 2.805-26.641 8.366-4.275 2.07-8.854 3.186-13.44 4.379-4.928 1.33-8.762 3.273-13.15 5.875-3.437.75-3.437.75-6 1v2c-2.561 2.296-3.48 3-7 3v2h-2l-1 3c-1.793 1.105-1.793 1.105-4.187 2.188-4.42 2.098-8.698 4.376-12.938 6.812l-1.82 1.044a277 277 0 0 0-11.438 7.003C262 296 262 296 259.062 297.125L257 298l-1 3c-4.333 3-4.333 3-7 3v-2h2v-2c2.3-1.72 4.597-3.31 7-4.875l1.965-1.316C271.807 286 271.807 286 276 286l.754-1.797c1.426-2.52 2.862-3.741 5.183-5.453l2.09-1.578C286 276 286 276 289 276l1-3c1.96-1.316 1.96-1.316 4.375-2.562 2.662-1.392 5.119-2.767 7.625-4.438 3.188-.125 3.188-.125 6 0v-2l2.52-1.023 3.293-1.352 3.269-1.336c3.025-1.237 3.025-1.237 5.918-3.289a79 79 0 0 1 4.438-1.625c.761-.26 1.523-.52 2.308-.79C332 254 332 254 336 254v-2l3.184-.586 4.253-.789 2.216-.41c3.894-.726 7.749-1.52 11.597-2.465 3.447-.69 4.588-.73 7.75.25"/><path fill="#151515" d="M357 240c-.602 1.879-.602 1.879-2 4-2.773 1.09-2.773 1.09-6.375 1.938l-1.969.482q-2.15.524-4.304 1.028c-3.395.797-6.78 1.629-10.165 2.466q-2.565.634-5.132 1.248c-6.959 1.698-13.447 4.079-20.012 6.963-1.612.69-3.238 1.35-4.867 2-4.852 1.948-9.419 3.877-13.801 6.75L285 269l-2-1 1-2h2l.223-1.848c.777-2.152.777-2.152 2.71-3.46l2.505-1.13 2.757-1.273L297 257q2.408-1.278 4.813-2.562c5.834-2.918 11.924-4.677 18.187-6.438l3.063-.914c4.75-1.381 8.934-2.492 13.937-2.086v-2q3.874-.756 7.75-1.5l2.21-.434c3.433-.655 6.532-1.066 10.04-1.066"/><path fill="#292929" d="M308 418c12.645-.33 24.7-.144 37.137 2.266 4.62.878 9.178 1.356 13.863 1.734l.367 1.793c.739 3.484 1.432 6.73 2.82 10.02.938 2.524.735 3.698-.187 6.187l-.605-2.336c-1.92-3.667-3.838-4-7.707-5.289-4.265-1.449-7.86-3.02-11.688-5.375-6.205-2.679-12.444-4.482-19.102-5.605C321 421 321 421 320 420a145 145 0 0 0-6.062-.562l-3.348-.254L308 419z"/><path fill="#222" d="M222 419h1l1 8h21v1l-1.797.044c-11.723.321-22.845.837-34.203 3.956l-2.754.723c-9.701 2.71-19.464 6.527-26.246 14.277l-1 2.125c-1.262 2.367-2.556 2.897-5 3.875l2-5h2c1.257-2.906 2-4.796 2-8l-2-2c3.648-1.273 7.194-2.328 11-3v-2q4.53-1.44 9.063-2.875l2.568-.816q3.68-1.165 7.369-2.309l2.045-.637c4.107-1.235 7.663-1.538 11.955-1.363z"/><path fill="#474747" d="M363 222c4.369 3.301 6.914 5.785 9 11v2c-2.833 1.416-5.475 1.346-8.625 1.563l-3.602.253L357 237v2l-2.352.335q-5.325.766-10.648 1.54l-3.7.527c-7.517 1.086-7.517 1.086-14.925 2.73C322 245 322 245 318 245v2c-4.205 1.964-8.275 3.795-12.75 5.063-3.21.763-3.21.763-5.559 2.39-2.986 1.716-5.655 2.462-9.003 3.234l-3.239.762L285 259l1-3c2.896-1.448 4.742-2 8-2v-2l2.09-.48c4.799-1.192 9.01-2.39 13.223-5.02 5.8-3.453 12.13-4.27 18.687-5.5 7.257-1.59 14.476-3.342 21.688-5.125l2.108-.517c3.696-.911 3.696-.911 7.204-2.358a95 95 0 0 1 5.125-.062l2.758.027L369 233c-1.666-3.57-3.154-6.29-6-9z"/><path fill="#575757" d="M376 247c-3.904 2.305-8.13 3.123-12.5 4.125l-2.3.55c-3.582.835-6.474 1.325-10.2 1.325v2l-3.21.805q-2.084.534-4.165 1.07l-2.117.527c-4.157 1.04-4.157 1.04-7.508 3.598-3.798 1.86-7.154 3.082-11.312 3.813-4.713.952-8.174 3.098-12.196 5.66-4.84 2.966-9.949 5.272-15.492 6.527v-2h2v-2c4.385-3 4.385-3 7-3v-2c7.778-3.61 15.703-6.615 23.86-9.258l2.015-.656c1.912-.62 3.827-1.23 5.742-1.84 3.307-1.08 3.307-1.08 5.695-2.73 4.04-2.279 8.318-3.158 12.813-4.203l2.835-.671c6.397-1.444 12.469-2.335 19.04-1.642"/><path fill="#090909" d="m328 370 2 2h-2l1 4c-10.536 7.726-22.725 13.588-35 18l-3.133 1.16c-9.085 3.23-9.085 3.23-12.867 1.84 20.755-11.564 20.755-11.564 29.938-14.812 7.34-2.767 13.674-7.725 20.062-12.188"/><path fill="#202020" d="m134 168 5 5 1.813 1.688C142 176 142 176 142 178l3 1c1.188 2.563 1.188 2.563 2 5h2c1.086 1.73 1.086 1.73 2.375 4.188 3.172 5.537 7.153 9.887 11.574 14.432 2.366 2.452 3.958 4.102 5.051 7.38h-3l-1 5-.25-1.687c-1.28-3.947-4.046-6.61-6.937-9.5C155 202 155 202 154 200l-3-1c-1.605-2.434-1.605-2.434-3.187-5.437l-1.606-2.997C145 188 145 188 145 186h-2l-.75-2.375c-1.458-3.061-2.33-3.212-5.25-4.625-.687-1.812-.687-1.812-1-4-.394-2.638-.394-2.638-1-5l-2-1z"/><path fill="#262626" d="m289 279 2 1c-3.75 3-3.75 3-6 3v2l4-1c-1 3-1 3-2.848 3.95l-2.214.738-2.223.761L280 290l2 1v2a418 418 0 0 1-3.812 2l-2.145 1.125C274 297 274 297 271 297v-2l-2.781 1.828C255 305.461 255 305.461 249 308l-2-1c2.857-3.016 5.246-5.248 9-7a102 102 0 0 0 3-3c3.487-3.002 6.91-5.094 11.063-7.062 3.632-1.728 6.765-3.476 9.937-5.938a139 139 0 0 1 4.625-2.75l2.352-1.36z"/><path fill="#0c0c0c" d="m384 242 1 3-1.961.727c-2.22 1.066-2.22 1.066-2.576 3.234l-.084 2.414c-.24 3.9-.664 7.652-1.352 11.5l-.537 3.047a1698 1698 0 0 1-1.117 6.156C376.256 278.46 375.75 284.523 376 291h-1c-.748-7.03-1.119-13.933-1-21v-3l3-1-.035-2.3c-.01-.995-.018-1.989-.027-3.012l-.036-2.989C377 255 377 255 378 252l-3.762.84-4.925 1.097-2.475.553q-3.418.761-6.838 1.51l-2.844.625c-3.059.532-6.06.436-9.156.375 1.617-2.662 2.591-3.843 5.54-4.973l3.01-.66 3.307-.754 3.455-.738q3.37-.75 6.739-1.508l3.02-.653C379.528 246.4 379.528 246.4 384 242"/><path fill="#474747" d="m285 260-1.937.313L281 261l-1 3c-2.176 1.472-4.433 2.696-6.746 3.938-2.826 1.556-5.079 2.887-7.379 5.187-2.2 2.2-3.949 2.854-6.875 3.875l-3.375 1.688c-4.084 1.478-6.438 1.252-10.625.312v-3l1.688-.7c6.708-2.866 13.242-5.935 18.312-11.3l1 2c5.29-1.238 9.367-3.209 13.984-6.074C282 259 282 259 285 260"/><path fill="#555" d="M295 419c4.02-.058 8.041-.094 12.063-.125l3.435-.05c5.894-.035 10.892.161 16.502 2.175l3.316.965 3.247.973 3.253.964c3.244 1.119 6.142 2.519 9.184 4.098q2.806 1.296 5.625 2.563A876 876 0 0 1 357 433c.733.3 1.467.598 2.223.906 2.27 1.397 2.722 2.54 3.59 5.031l.769 2.09C364 443 364 443 363 446l-1.187-2.875c-2.084-3.593-3.07-3.781-6.813-5.125l-.812-1.937c-2.77-4.81-11.212-5.697-16.188-7.063l-3-1v-2l-3.812-.312c-3.717-.404-7.158-1.16-10.75-2.188-5.947-1.698-11.48-2.575-17.688-2.437-3.565-.06-4.788-.392-7.75-2.063"/><path fill="#505050" d="M225 406h3v3q2.486.572 5 1l1-1a88 88 0 0 1 4.91-.316l2.998-.127 3.155-.12 3.166-.13q3.885-.16 7.771-.307a80 80 0 0 1-8.437 3.688c-5.533 2.165-10.617 4.993-15.778 7.921C229 421 229 421 226 421z"/><path fill="#474747" d="M339 346c1.206 2.332 2.165 4.496 3 7a97 97 0 0 1-4 7l-1.5 2.688c-3.619 5.578-8.92 8.784-14.375 12.375l-2.395 1.603c-8.223 5.453-8.223 5.453-12.73 7.334l-2-1 1-2h3l1-3c3.386-3.181 6.996-5.02 11.137-6.984 2.379-1.297 4.03-3.042 5.863-5.016h2v-2h2v-2h2l.55-2.23c2.497-9.693 2.497-9.693 5.45-13.77"/><path fill="#585858" d="M119 84c2.29 3.737 2.673 7.68 3.25 11.938 1.493 10.27 3.613 20.39 5.769 30.536l.774 3.655.704 3.283C130 136 130 136 130 138h-2l-1-7-5 1v-2h2v-2l-2-1 1-4-2-1 .063-3.375c.2-3.457.2-3.457-1.063-5.625a101 101 0 0 1-.5-4.437c-.256-2.778-.609-4.89-1.5-7.563-.136-4.287-.14-7.87 1-12a99 99 0 0 0 0-5"/><path fill="#6f6f6f" d="m300 270 2 1-2 2h-3v2h-2l-1 3c-1.793 1.105-1.793 1.105-4.187 2.188-4.42 2.098-8.698 4.376-12.938 6.812l-1.82 1.044a277 277 0 0 0-11.438 7.003C262 296 262 296 259.062 297.125L257 298l-1 3c-4.333 3-4.333 3-7 3v-2h2v-2c2.3-1.72 4.597-3.31 7-4.875l1.965-1.316C271.807 286 271.807 286 276 286l.77-1.809c3.282-5.845 10.222-8.897 16.23-11.191q1.907-.873 3.813-1.75z"/><path fill="#202020" d="M214 366c1.985 2.978 2.19 4.43 2.594 7.848 1.007 5.337 3.313 10.438 5.336 15.46 1.468 3.7 2.445 6.69 2.07 10.692l-1-4h-4l-1 2q-2.006-6.185-4-12.375l-1.156-3.562-1.094-3.399-1.016-3.142C210 373 210 373 210 371l2-1c1.134-2.017 1.134-2.017 2-4"/><path fill="#171717" d="m202 340 2 3 2.125 1.75c2.582 3.098 1.945 5.31 1.875 9.25 1.372 2.19 1.372 2.19 3 4 .625 2.063.625 2.063 1 4l1 3a100 100 0 0 1 0 5l-4 1a970 970 0 0 1-2.77-6.926 346 346 0 0 0-2.68-6.492l-1.425-3.457-1.367-3.242c-.758-2.883-.758-2.883.11-5.016L202 344z"/><path fill="#0b0b0b" d="M385 322c2.912 3.288 4.497 5.599 5 10l-2-2-1.375 2-1.625 2h-2l-.8 1.828c-1.258 2.276-2.354 3.34-4.387 4.922-2.817 2.295-5.121 4.702-7.438 7.5-2.531 2.994-4.444 4.797-8.375 5.75.577-3.28 1.494-4.838 3.914-7.102l1.798-1.72 1.913-1.803c9.938-9.276 9.938-9.276 15.375-21.375"/><path fill="#777" d="M293 295c-2.561 2.356-3.916 2.99-7.437 3.438-4.076.643-5.47 1.957-8.563 4.562-2.312.563-2.312.563-5 1-1.899.72-3.797 1.441-5.691 2.172-5.601 2.009-11.381 3.701-17.309 4.328-3.308.551-3.875 1.085-6 3.5-2.687 1.188-2.687 1.188-5 2 .813-1.937.813-1.937 2-4l3-1 .938-3 1.062-3c2.125-.875 2.125-.875 4-1l-1 3c6.055-.248 10.7-1.009 16.012-3.957 5.805-3.045 12.493-4.508 18.758-6.344 2.38-.706 2.38-.706 5.168-1.949C290 294 290 294 293 295"/><path fill="#424242" d="M163 162c3.882 3.768 7.795 7.628 11 12v2h2v2c4.98.754 4.98.754 10 1l-.82 1.629c-.463 2.644-.463 2.644 1.953 5.21a181 181 0 0 0 2.992 3.099l1.477 1.552c2.35 2.46 4.747 4.845 7.203 7.201C201 200 201 200 202 203l-5-2v-2h-2v-2c-.6-.26-1.199-.52-1.816-.79-2.351-1.303-3.459-2.494-5.121-4.585-3.227-3.846-6.76-7.112-10.5-10.437C171.83 176.039 166.96 170.675 163 164zm201 182 2 1-.937 2.313A111 111 0 0 0 363 353l2 1-9 9-2.187 2.313C352 367 352 367 350 367l.5-2.812c.577-3.144.577-3.144.5-6.188 1.898-2.7 1.898-2.7 4.375-5.687l2.46-3.012L360 347h2v-2z"/><path fill="#080808" d="M118 0h4c1.593 3.186 1.636 6.683 2 10.188l.265 2.514c.772 7.781 1.135 15.566 1.393 23.379.142 4.104.32 8.148.865 12.22.424 3.29.58 6.387.54 9.699l-.028 2.875L127 63c-2.508-3.762-2.7-7.177-3.125-11.562l-.262-2.554c-.61-6.5-.679-12.91-.579-19.432.076-8.093.083-17.291-4.034-24.452l-2 7h-1q.21-2.72.438-5.437c.08-1.01.162-2.02.246-3.06C117 1 117 1 118 0"/><path fill="#303030" d="M385 347h2c-.71 5.854-1.997 11.473-3.437 17.188l-.659 2.693-.65 2.6-.584 2.34c-.68 2.213-1.577 4.143-2.67 6.179l-4-1a140 140 0 0 1 2.438-10.5l.746-2.781c.795-2.65 1.78-5.155 2.816-7.719l1-3.687c1-3.313 1-3.313 3-5.313"/><path fill="#0a0a0a" d="M340 195c3.365.58 4.635 1.635 7 4 2.103.714 2.103.714 4 1l1-3c3.055 6.365 3.055 6.365 2.75 9.875.41 5.114 3.968 8.358 7.25 12.125-3 0-3 0-4.578-1.504l-1.672-2.059c-2.366-2.824-4.758-5.53-7.375-8.125l-1.73-1.718a218 218 0 0 0-4.582-4.281C340 199 340 199 340 195"/><path fill="#737373" d="M327.055 424.336c2.605.89 5.22 1.315 7.945 1.664v2l1.906.332c5.65 1.047 10.868 2.242 16.094 4.668 1.5 2.188 1.5 2.188 2 4l-7-1v-2h-6v-2l-7-1-1-3-2.012-.367-2.675-.508-2.637-.492C324 426 324 426 321.688 425c-3.62-1.347-7.178-1.708-11-2.125l-2.245-.262A978 978 0 0 0 303 422c6.789-4.389 17.026-.232 24.055 2.336"/><path fill="#7a7a7a" d="M334 353h1c.25 5.625.25 5.625-2 9h-2v2h-2v2l-1.687.688c-2.497 1.275-2.497 1.275-4.688 3.75-2.744 2.678-5.223 3.861-8.625 5.562l-2.687 2.688L309 381h-3l-1 3c-2.871 1.605-2.871 1.605-6.437 3.188l-3.56 1.605C292 390 292 390 290 390l1-3a78 78 0 0 1 5-2q2.51-1.481 5-3l3.188-1.5c3.048-1.34 3.048-1.34 4.812-4.5 2.188-1.437 2.188-1.437 5-3l1.813-1.078C320.75 369 320.75 369 323 369l1-3a282 282 0 0 1 5-5c2.354-2.746 3.854-4.563 5-8"/><path fill="#0b0b0b" d="M298 445c6.17.274 9.984 1.124 15 5 1.66 1.01 3.325 2.015 5 3-2.592 1.296-5.13 1.36-7.977 1.684-2.532.396-4.677 1.302-7.023 2.316-4.14 1.057-8.05 1.102-12.312 1.063l-3.801-.028L284 458v-1l20-3 1-3-7-4z"/><path fill="#0d0d0d" d="M305.348 384.121C307 385 307 385 308 388c-5.904 3.335-11.933 5.813-18.375 7.875l-2.09.688c-3.477 1.074-6.082 1.871-9.535.437 3.65-2.033 7.32-4.025 11-6l1.83-.987a523 523 0 0 1 5.608-2.95l3.496-1.84C303 384 303 384 305.348 384.12"/><path fill="#393939" d="M331 185c5.777-.462 8.402.552 13 4l3 1v2h2c2.152 3.228 2.2 4.284 2 8l-5-1v-2l-1.64-.715c-3.004-1.636-5.472-3.673-8.11-5.847l-2.984-2.442L331 186z"/><path fill="#5e5e5e" d="M220 314v2h2c-.783 3.916-2.392 7.364-4 11-2.679-.362-4.61-.74-6.875-2.25C210 323 210 323 210 320.563c1.938-4.967 4.804-6.563 10-6.563"/><path fill="#2b2b2b" d="M315 250c-3.054 2.036-5.53 2.844-9 4-3.036 1.254-6.015 2.628-9 4l-3.598 1.64c-6.424 2.951-12.718 5.924-18.765 9.61L273 270l-2-1c1.856-1.856 3.283-2.782 5.563-4 3.463-1.595 3.463-1.595 4.437-4 1.934-.93 1.934-.93 4.438-1.875l2.718-1.047L291 257q2.721-1.054 5.438-2.125l2.433-.945c2.358-.956 2.358-.956 5.129-2.93 3.703-1 7.176-1.089 11-1"/><path fill="#191919" d="m244 281 3 4h-2v2l4 1-1.68.805-2.195 1.07-2.18 1.055c-2.096 1.036-2.096 1.036-3.945 3.07l-2.062.813c-4.186 1.691-8.022 3.952-11.938 6.187.835-2.504 1.794-4.668 3-7h2v-2q2.934-1.507 5.875-3l3.305-1.687C242 286 242 286 244 286l-.562-1.937L243 282z"/><path fill="#464646" d="M389 329c.407 12.499.407 12.499-2 18-2.625 1.938-2.625 1.938-5 3l-1-1c.038-1.628.155-3.254.313-4.875l.238-2.68C382 339 382 339 384 336l-1-2c4.875-5 4.875-5 6-5"/><path fill="#515151" d="M380 348c1.54 1.238 1.54 1.238 3 3-.04 1.98-.04 1.98-.625 4.188l-.645 2.437a108 108 0 0 1-2.808 7.996c-1.69 4.361-3.192 8.794-4.738 13.207-1.815 4.862-4.122 8.962-7.184 13.172h-2c1.526-3.925 3.23-7.742 5-11.562l1.563-3.38c.815-1.734 1.653-3.46 2.562-5.148 1.048-2.287 1.452-4.433 1.875-6.91.58-3.398 1.467-5.934 3-9 .445-2.126.445-2.126.625-4.25z"/><path fill="#090909" d="m374 235 3 2c2.321.708 4.654 1.38 7 2-4.647 4.647-15.05 3.15-21.277 3.23C360 242 360 242 358 240c2-2 2-2 5.258-2.195l3.867.07 3.883.055L374 238zm-115 41 2 1v4l-9 3v2l-7 1v-4l-2-1v-2c3.62-.998 7.146-1.325 10.879-1.621 2.414-.285 2.414-.285 5.121-2.379"/><path fill="#696969" d="M369 231v2l-1.73.078c-5.144.36-9.63 1.266-14.52 2.922-5.92 1.938-11.423 2.56-17.625 2.852-3.438.163-6.734.583-10.125 1.148l1-2c2.695-.562 2.695-.562 6.125-1 5.913-.827 11.148-1.992 16.75-4.062 3.416-1.025 6.629-1.397 10.172-1.692 6.82-.86 6.82-.86 9.953-.246"/><path fill="#4e4e4e" d="m329 364 2 1-2 1zm-2 2 3 1c-1.517 4.67-5.326 6.55-9.25 9.063l-1.988 1.314c-3.795 2.478-7.584 4.837-11.762 6.623l-2-1 1-2h3l1-3c2.79-2.62 5.637-4.37 9.063-6 3.262-1.554 5.556-3.222 7.937-6"/><path fill="#a4a4a4" d="m209 312 2 1-2.344 5.078c-.871 2.214-.871 2.214-.656 5.922l4 2v3c-4.053-1.225-7.444-2.699-11-5 .12-6.146.12-6.146 2.625-8.578A66 66 0 0 1 209 312"/><path fill="#2c2c2c" d="M127 70h1l.262 3.488c.957 11.281 3.087 21.756 6.219 32.624.626 2.276 1.107 4.564 1.519 6.888-3.485-2.692-4.359-6.387-5.562-10.437l-.658-2.156C127.986 94.339 126.85 88.268 126 82l-.57-3.16c-.448-2.96-.248-4.978.57-7.84z"/><path fill="#3c3c3c" d="M308 418c7.98-.204 15.296-.22 23 2l1 1c1.638.37 3.286.697 4.938 1 4.848.893 4.848.893 7.062 2v2l2.25.25c3.262.89 4.56 2.235 6.75 4.75-4.324-1.057-8.063-2.473-12.062-4.437-5.574-2.628-11.127-3.859-17.165-4.985C321 421 321 421 320 420a145 145 0 0 0-6.062-.562l-3.348-.254L308 419z"/><path fill="#666" d="M345 268v2l-2 2-1.262 1.691c-2.781 3.65-3.995 5.13-8.613 6.247L330 280c0-2 0-2 2-4h-8c3.146-2.097 5.015-2.52 8.688-3.125l3.011-.508L338 272l1-3c3-1 3-1 6-1"/><path fill="#505050" d="M376 247c-3.904 2.305-8.13 3.123-12.5 4.125l-2.3.55c-3.582.835-6.474 1.325-10.2 1.325v2h-11c3.437-2.578 4.717-3.433 8.598-4.387l2.665-.655 2.8-.645 2.848-.671c6.412-1.44 12.504-2.336 19.089-1.642"/><path fill="#161616" d="M378 296c1.52 1.207 1.52 1.207 3 3 .074 2.262.074 2.262-.312 4.688l-.364 2.449L380 308h-2v-2c-1.95.195-1.95.195-4 1-.3.598-.598 1.196-.906 1.813-1.247 2.492-2.717 4.01-4.719 5.937l-1.914 1.86L365 318l-2-1c2.647-4.215 5.37-7.547 9-11l2.688-2.812C377 301 377 301 379 301z"/><path fill="#7d7d7d" d="M328 257c-2.814 2.814-6.23 4.3-9.75 6.063l-2.133 1.103C312.071 266.2 308.57 267.533 304 268v2l-2.266.805-2.984 1.07-2.953 1.055A61 61 0 0 0 289 276c1.219-3.657 2.055-3.849 5.375-5.562 2.662-1.392 5.119-2.767 7.625-4.438 3.188-.125 3.188-.125 6 0v-2l2.52-1.023 3.293-1.352 3.269-1.336c7.824-3.456 7.824-3.456 10.918-3.289"/><path fill="#272727" d="M280 166c16.514.87 31.585 8.832 45 18l-1 3-2.125-1.645c-4.8-3.62-9.16-6.882-14.914-8.714-2.237-.731-4.321-1.662-6.461-2.641-6.724-3.022-13.316-5.332-20.5-7z"/><path fill="#737373" d="M225 406h3v3q2.486.572 5 1l1-1c2.02-.072 4.042-.084 6.063-.062l3.347.027L246 409c-6.294 4.196-12.532 5.407-20 5z"/><path fill="#343434" d="m266 293 1 4a681 681 0 0 1-6.062 4.375l-1.702 1.25c-3.985 2.824-7.474 4.271-12.236 5.375 1.31-4.074 3.766-5.177 7.332-7.066 1.914-1.072 3.19-2.322 4.668-3.934 4.686-4 4.686-4 7-4"/><path fill="#232323" d="m303 273 2 1v3c-6.57 3.482-12.669 6.59-20 8v-2c5.374-4.18 11.723-7.416 18-10"/><path fill="#525252" d="m251 413 2 1-1.937 1.625c-2.642 2.623-2.642 2.623-3.063 8.375l-13-1c3.06-3.06 5.774-4.701 9.563-6.75l3.503-1.922z"/><path fill="#9a9a9a" d="M231.375 298.277 233 299h-2l-.687 1.688c-1.732 3.05-3.627 5.053-6.313 7.312-3.312.813-3.312.813-6 1v2l-5 1c2.785-4.665 5.387-7.387 10-10.437l3.125-2.122C229 298 229 298 231.375 298.277"/><path fill="#0f0f0f" d="M250 424q2.94.425 5.875.875l3.305.492C262 426 262 426 264 428l-1 2 4 2c-2.948 1.474-4.797.455-7.937-.375l-3.215-.836A119 119 0 0 1 250 429z"/><path fill="#151515" d="m134 168 5 5 1.813 1.688C142 176 142 176 142 178l3 1c.73 1.848.73 1.848 1.188 4.063l.48 2.222L147 187c-1.937-.348-1.937-.348-4-1a312 312 0 0 1-2-5 179 179 0 0 0-4-2c-.687-1.812-.687-1.812-1-4-.394-2.638-.394-2.638-1-5l-2-1z"/><path fill="#313131" d="M121 47c2.108 3.162 2.338 4.507 2.625 8.188l.227 2.73L124 60h2c1.747 5.241 1.328 10.688 0 16l-2-1c-.598-2.922-.598-2.922-1.062-6.75l-.25-2.02c-.764-6.393-1.276-12.805-1.688-19.23"/><path fill="#464646" d="M325 272c-4.234 4.94-9.13 7.321-15 10-.566-1.902-.566-1.902-1-4 2.62-3.853 7.408-5.566 11.75-6.75C323 271 323 271 325 272m-19 11 2 1Z"/><path fill="#0c0c0c" d="M368 250v3l-2.937.375L362 254l-1 2c-2.941.414-2.941.414-6.562.625l-3.63.227L348 257c1.76-3.13 2.767-3.925 6.25-5.047l3.75-.703 3.75-.734C365 250 365 250 368 250"/><path fill="#282828" d="M163 162c3.882 3.768 7.795 7.628 11 12v2h2v2c4.98.754 4.98.754 10 1l-2 5c-6.598-.752-9.815-5.21-14-10-7-9.01-7-9.01-7-12"/><path fill="#161616" d="m161 215 6 1a105 105 0 0 1-4 5h-2v2a141 141 0 0 1-5 5l-2-1 2-4-3-4 2.875-.312c3.416-.373 3.416-.373 5.125-3.688"/><path fill="#7e7e7e" d="M344 365v3a173 173 0 0 1-6 5l-1 2-1.812.313c-2.466.532-2.466.532-4 3.25C329 381 329 381 325.25 381.313L322 381c4.436-3.663 9.105-6.95 13.813-10.25l2.388-1.68Q341.1 367.033 344 365"/><path fill="#3f3f3f" d="M347 255v1l-2.336.586-3.039.789-3.023.773c-2.727.676-2.727.676-4.602 2.852-5.327 2.718-10.056 3.61-16 4l1-2c2.012-.597 4.028-.954 6.09-1.34 2.291-.576 2.291-.576 3.91-3.66 5.868-2.65 11.638-3.353 18-3"/><path fill="#676767" d="m265 264 1 2 2 1c-5.179 3.629-10.092 6.728-16 9l-2.75 1.25C247 278 247 278 244 277l2.414-1.172c10.097-4.744 10.097-4.744 18.586-11.828"/><path fill="#878787" d="M119 18h1c.733 10.688 1.14 21.285 1 32h-1l-1-7h-1q-.04-4-.062-8l-.026-2.254c-.022-5.007.373-9.789 1.088-14.746"/><path fill="#666" d="M256 407h6v2a381 381 0 0 1-6 5l-1 2h-2c-1.414 2.639-2.372 5.071-3 8h-2v-6l1.938-.75L252 416l.438-1.937C253 412 253 412 255.563 410.25L258 409z"/><path fill="#1f1f1f" d="m145 181 2 1v2h2c1.543 2.117 1.543 2.117 3.188 4.875l1.667 2.742L155 194l-1 2c-6.646-3.323-6.646-3.323-8.437-6.75L145 187h2l-2-3z"/><path fill="#666" d="M327.055 424.336c2.605.89 5.22 1.315 7.945 1.664v2q-2.596-.428-5.187-.875l-2.918-.492C324 426 324 426 321.656 425c-3.604-1.357-7.156-1.71-10.969-2.125l-2.244-.262A978 978 0 0 0 303 422c6.789-4.389 17.026-.232 24.055 2.336"/><path fill="#242424" d="M214 366c2.324 3.486 2.433 5.89 3 10 .975 2.819.975 2.819 2 5l-2 1-1-5h-3l-1 3-2-9 2-1c1.134-2.017 1.134-2.017 2-4"/><path fill="#070707" d="M197 329c3.72 2.48 3.896 3.74 5 8 .422 2.666.722 5.313 1 8l-3 1c-2.07-3.104-2.223-3.648-2.062-7.125L198 335l-1-1a100 100 0 0 1 0-5"/><path fill="#383838" d="M116 68c2.716 3.098 3.393 5.107 3.512 9.203l.107 2.969.069 3.078.103 3.125q.123 3.813.209 7.625l-2-1a92 92 0 0 1-1.125-7.5l-.257-2.193c-.571-5.13-.802-10.143-.618-15.307"/><path fill="#818181" d="M264 405c-.25 2.375-.25 2.375-1 5-2.062 1.313-2.062 1.313-4 2l1-3h2v-2l-2.387.438c-7.95 1.354-15.555 1.8-23.613 1.562v-1q6.156-.754 12.313-1.5l3.537-.434 3.388-.41 3.127-.38C261 405 261 405 264 405"/><path fill="#383838" d="M312 266h5c-3.636 3.133-7.192 5.217-11.562 7.188l-3.38 1.542c-2.383.99-4.542 1.76-7.058 2.27v-2h2v-2c3.76-2.91 7.536-3.678 12.11-4.473L311 268z"/><path fill="#0a0a0a" d="M329 247v2l-6 1v2c-2.75.917-4.36 1.109-7.187 1.063L312 253v-2c5.846-2.635 10.545-4.561 17-4"/><path fill="#373737" d="M368 336c2.784 1.392 2.979 3.156 4 6l-7 6-1-3-2-1z"/><path fill="#909090" d="m215 307 2 1-2 1zm-2 2 2 1v3h-2c-1.591 4.177-2.213 7.532-2 12l-4-1c.653-4.465 1.522-8.73 3-13z"/><path fill="#2f2f2f" d="M267 272c-2.39 2.768-4.588 3.76-8 5l-3.5 1.625c-3.213 1.262-5.12 1.682-8.5 1.375 5.74-4.51 12.443-8.994 20-8"/><path fill="#626262" d="m317 412-3 1v2l-19 2c4.307-4.307 4.784-4.515 10.438-4.75l3.37-.172c2.733-.067 5.459-.098 8.192-.078"/><path fill="#797979" d="m267 289 2 1c-2.606 3.909-5.371 5.408-9.75 7l-2.25 1-1 3c-4.333 3-4.333 3-7 3v-2h2v-2c1.361-1.13 1.361-1.13 3.246-2.348l2.037-1.334 2.154-1.38q2.094-1.36 4.184-2.723L264.51 291c1.474-.92 1.474-.92 2.49-2"/><path fill="#181818" d="M189 235c3.18.258 4.782.83 7.313 2.813C198 240 198 240 198 244c-3.6-.556-5-1.749-7.25-4.562l-1.578-1.942L188 236z"/><path fill="#7f7f7f" d="m290 391-2.187 1.242-2.813 1.633-2.812 1.617L280 397v2c-2.375.625-2.375.625-5 1l-2-2 5-5v2l1.863-1.129 2.45-1.433 2.425-1.442C287 390 287 390 290 391"/><path fill="#181818" d="m370 343 3 1c-1.561 3.831-3.914 6.281-7 9-2.312.813-2.312.813-4 1 .57-3.626 1.924-5.255 4.563-7.75l1.94-1.86c.495-.458.988-.917 1.497-1.39"/><path fill="#121212" d="m339 244-1 4c-1.746.533-3.497 1.05-5.25 1.563l-2.953.878c-2.76.551-4.188.497-6.797-.441l6-1-1-3q2.187-.504 4.375-1l2.46-.562C337 244 337 244 339 244"/><path fill="#828282" d="M331 185c3.188-.312 3.188-.312 7 0 2.63 2.173 4.473 3.947 6 7-6.134-.368-8.74-1.843-13-6z"/><path fill="#9f9f9f" d="m112 39 2 1v11c-3 0-3 0-5-1 .75-7.625.75-7.625 3-11"/><path fill="#323232" d="m306 452 3 1c-2 3-2 3-5.75 4.188-6.358 1.259-12.8.977-19.25.812v-1l1.804-.244c2.692-.368 5.381-.75 8.071-1.131l2.84-.383 2.715-.39c.827-.116 1.655-.23 2.507-.35 2.27-.363 2.27-.363 4.063-2.502"/><path fill="#171717" d="M208 361c1.938.313 1.938.313 4 1 .976 2.928 1.082 4.956 1 8l-4 1c-1.837-3.782-2.158-5.946-1-10"/><path fill="#404040" d="M118 4c2 1 2 1 4 4 .195 2.262.195 2.262.125 4.688l-.055 2.449L122 17l-2 1c-.465 1.895-.465 1.895-.625 4.063L119 26h-1q-.04-2.437-.062-4.875l-.036-2.742C118 16 118 16 119 14h2v-3l-4 1z"/><path fill="#181817" d="M185 437c.813 1.688.813 1.688 1 4-2.25 2.438-2.25 2.438-5 5l-1.562 2.688c-1.578 2.538-2.687 3.268-5.438 4.312l2-5h2c1.257-2.906 2-4.796 2-8l1.938-.937c1.998-.898 1.998-.898 3.062-2.063"/><path fill="#636363" d="m302 271-2 2h-3v2h-2l-1 3c-1.777 1.168-1.777 1.168-3.937 2.188l-2.153 1.042C286 282 286 282 284 282v-2l6-2v-3c8.235-5.882 8.235-5.882 12-4"/><path fill="#1e1e1e" d="M353 258c-6.245 1.96-10.648 2.452-17 1 2.264-2.264 3.371-2.518 6.438-3.187l2.37-.543c3.521-.433 5.284.791 8.192 2.73"/><path fill="#060606" d="M207.5 327.25c2.5.75 2.5.75 5.5 2.75l-1 4c-3.912-1.156-6.875-2.355-10-5 3-2 3-2 5.5-1.75"/><path fill="#050505" d="M385 322c2.912 3.288 4.497 5.599 5 10l-2-2-1.812 1.563L384 333l-3-1z"/><path fill="#3e3e3e" d="m278 289 4 2v2a418 418 0 0 1-3.812 2l-2.145 1.125C274 297 274 297 271 297l-1-3a351 351 0 0 1 3.875-2.562l2.18-1.442z"/><path fill="#5a5a5a" d="M322 275v3c-3.636 3.625-8.085 5.681-13 7v-3z"/><path fill="#121212" d="M361.945 237.805 368 238l1 3c2.015.733 2.015.733 4 1-2.125.054-4.25.093-6.375.125l-3.586.07C360 242 360 242 358 240c2-2 2-2 3.945-2.195"/><path fill="#606060" d="M341 238v1l-2.562.586-3.438.789-3.598.824c-2.63.62-5.233 1.282-7.84 1.988-3.332.76-6.161.983-9.562.813 8.219-4.505 17.696-6.642 27-6"/><path fill="#a5a5a5" d="M185 179h5l.438 3.313c.445 3.618.445 3.618 1.562 6.687-3.36-1.44-5.716-3.124-8-6 .25-2.25.25-2.25 1-4"/><path fill="#141414" d="m290 390 3 1 1 3q-2.869 1.048-5.75 2.063l-3.234 1.16c-2.939.757-4.24.849-7.016-.223l2.371-1.277 3.067-1.66 3.058-1.653c2.37-1.187 2.37-1.187 3.504-2.41"/><path fill="#7e7e7e" d="M222 318c1.478 2.957.568 5.055-.27 8.156C221 328 221 328 219.125 329.5 217 330 217 330 213 330l-2-4h7l1.438-3.437C221 319 221 319 222 318"/><path fill="#282828" d="M148 192c3.62 1.502 6.732 2.821 10 5 .688 2.625.688 2.625 1 5h-4l-1-2-3-1c-3-4.333-3-4.333-3-7"/><path fill="#2e2e2e" d="m352 328 1 2-.937 2.25c-1.196 3.094-1.216 5.462-1.063 8.75l-5 1 2-3v-3l-3 5-2-1q1.967-2.72 3.938-5.437l2.214-3.06C351 329 351 329 352 328"/><path fill="#9a9a9a" d="M119 64c3.412 3.412 3.412 3.412 3.813 7l.269 2.063C123 75 123 75 121 78l-2-1z"/><path fill="#373737" d="m387 347-1 7h-2l-.375 2.438L383 359l-2 1c.806-13 .806-13 6-13"/><path fill="#666" d="m319 279 2 1h-3zm-3 2 2 1c-5.467 4.871-9.626 6.966-17 7a823 823 0 0 1 6.938-3.437c3.062-1.502 3.062-1.502 5.812-3.313z"/><path fill="#292929" d="M375 266h2c.098 5.276-.202 10.347-.777 15.59-.292 3.156-.292 6.242-.223 9.41h-1c-.748-7.03-1.119-13.933-1-21v-3z"/><path fill="#1c1c1c" d="M374 250a100 100 0 0 1 5 0l1 1a85 85 0 0 1-.375 5.25l-.273 2.89A88 88 0 0 1 378 267h-1q-.04-2.906-.062-5.812l-.036-3.27C377 255 377 255 378 252l-8 1 4-1z"/><path fill="#6f6f6f" d="M369 231v2c-1.048.09-1.048.09-2.117.184l-2.758.254c-.905.08-1.81.162-2.742.246-2.394.186-2.394.186-4.383 1.316-1.874.07-3.75.084-5.625.063l-3.04-.028L346 235c4.558-2.279 7.822-3.257 12.906-3.719 6.837-.918 6.837-.918 10.094-.281"/><path fill="#111" d="M118 0h4v8l-2 1-1-4-2 7h-1q.21-2.72.438-5.437c.08-1.01.162-2.02.246-3.06C117 1 117 1 118 0"/><path fill="#616161" d="M356 356c0 3.76-.042 6.792-2.437 9.813C352 367 352 367 350 367l.5-2.812c.577-3.144.577-3.144.5-6.188z"/><path fill="#b9b9b9" d="m366 305 4 2c-1.957 3.522-3.951 6.344-7 9h-2c1.225-4.053 2.699-7.444 5-11"/><path fill="#4d4d4d" d="M300 251c-1 3-1 3-2.637 4.133-4.13 1.998-7.734 3.404-12.363 3.867l1-3c2.896-1.448 4.742-2 8-2v-2c3-1 3-1 6-1"/><path fill="#0e0e0e" d="M198 241c5.785 3.446 5.785 3.446 6.875 6.25L205 249c-4 0-4 0-6.312-1.75C197 245 197 245 197.25 242.75z"/><path fill="#141414" d="m178 221 7 6-3 1v2h-2c-1.29-1.531-1.29-1.531-2.625-3.5l-1.352-1.969L175 223z"/><path fill="#242424" d="M218 389c2.41.964 3.76 1.652 5.25 3.813.86 2.51.896 4.55.75 7.187l-1-4h-4l-1 2c-.879-6.152-.879-6.152-1-8z"/><path fill="#656565" d="M374 362h2c.67 7.246-1.419 11.758-5 18-.625-1.812-.625-1.812-1-4l2-3c.441-1.882.81-3.78 1.125-5.687l.508-3.012z"/><path fill="#8e8e8e" d="m368 242 4 1-1 2 7-2v2l2 1c-1 1-1 1-4.16 1.098l-3.902-.036-3.91-.027L365 247l1-2h4v-2z"/><path fill="#252525" d="M207 428v2l7-1v2l-12 3-1-5c3-1 3-1 6-1"/><path fill="#626262" d="M225 406h3l2 6h7c-3.089 2.06-3.71 2.239-7.187 2.125L226 414z"/><path fill="#090909" d="M218 340h5a101 101 0 0 1 3 6l-1 2h-2v-2h-3z"/><path fill="#616161" d="m107 274-4 1q.214 2.156.438 4.313c.08.8.162 1.6.246 2.425.269 2.423.269 2.423 1.316 5.262.128 2.674.044 5.321 0 8h-1l-.367-2.047-.508-2.703-.492-2.672c-.53-2.567-.53-2.567-1.695-4.703-1.322-2.643-1.07-4.969-.938-7.875 2.463-1.231 4.28-1.072 7-1"/><path fill="#1d1d1d" d="M345 242v3l4 1-11 2 1-4-2-1c2.892-.826 4.887-1 8-1"/><path fill="#535353" d="M119 84c2.15 3.532 2.38 6.663 2.625 10.75l.227 3.547L122 101l-2-3v6c-2.485-3.727-2.307-6.691-2-11 .306-1.34.635-2.675 1-4a99 99 0 0 0 0-5"/><path fill="#3a3a3a" d="M120 18h2l1 15-3 2z"/><path fill="#1e1e1e" d="m325.688 264.438 2.449.308L330 265c-2.934 1.956-5.782 3.562-9 5l-2-1 1-2-5 1c3.338-3.656 5.86-4.192 10.688-3.562"/><path fill="#535353" d="M298 288v2c-3.404 2.032-6.323 2.369-10.25 2.625l-3.266.227L282 293c5.015-4.71 9.308-5 16-5"/><path fill="#1e1e1e" d="m258 426 6 1-1 3 4 2c-2.547 1.274-3.428.802-6.125.063l-2.195-.59L257 431z"/><path fill="#545454" d="m318 373 2 1-2.937 1.813c-3.294 1.898-3.294 1.898-4.063 5.187-2.937 1.75-2.937 1.75-6 3l-2-1 1-2h3l1-3c2.661-2.381 4.597-3.866 8-5"/><path fill="#3a3a3a" d="M339 346c1.206 2.332 2.165 4.496 3 7-1.437 3.188-1.437 3.188-3 6h-1l1-7h-2c.875-4.875.875-4.875 2-6"/><path fill="#141414" d="M362 319c-2.303 5.182-5.954 9.099-10 13 3.93-13 3.93-13 10-13"/><path fill="#303030" d="m289 279 2 1c-3.75 3-3.75 3-6 3v2l4-1-1 3-5 1-3-4a432 432 0 0 1 4.375-2.562l2.46-1.442z"/><path fill="#3c3c3c" d="M321 273c-6.074 5.882-6.074 5.882-9.937 6.375L309 279c2.799-4.509 6.644-7.785 12-6"/><path fill="#525252" d="M193 193c3.973 2.097 6.439 4.3 9 8v2l-5-2v-2h-2v-2l-4-2z"/><path fill="#444" d="M134 168c2.932 2.853 5.643 5.65 8 9h-2l-1 4c-2.138-3.207-2.68-5.563-3.437-9.258L135 170l-2-1z"/><path fill="#3b3b3b" d="M119 95c2.31 2.31 2.722 3.83 3.625 6.938.26.875.52 1.75.79 2.652C124 107 124 107 124 110c-1.953-.586-1.953-.586-4-2-.61-3.04-.61-3.04-.75-6.625l-.172-3.602z"/><path fill="#0d0d0d" d="m217 426 1 3c-3.734.879-7.168 1.09-11 1l1-3c3.153-.7 5.727-1 9-1"/><path fill="#3c3c3c" d="M246 417v3l-4 1v2h-7c2.76-3.22 6.647-6 11-6"/><path fill="#666" d="M334 353h1c.25 5.625.25 5.625-2 9h-2v2h-2v2l-3 1c1.52-3.455 3.626-6.315 5.879-9.316 1.307-1.803 1.307-1.803 2.121-4.684"/><path fill="#969696" d="m209 312 2 1-4 10-2-4-3-2z"/><path fill="#858585" d="m302 266 2 1c-4.56 5.113-8.604 6.868-15 9 1.219-3.657 2.055-3.849 5.375-5.562 2.662-1.392 5.119-2.767 7.625-4.438"/><path fill="#121212" d="m375 249-1 3h-4v2l-8 1c3-2 3-2 6-2v-4c3.01-.934 3.867-1.044 7 0"/><path fill="#070707" d="m165 210 5 1v6l-6-2z"/><path fill="#303030" d="M353 430h5v2h4l1 8c-2-2-2-2-3-5-3.503-1.716-3.503-1.716-7-3z"/><path fill="#707070" d="M306 383q-3.435 1.757-6.875 3.5l-1.973 1.012C292.227 390 292.227 390 290 390l1-3c2.063-1 2.063-1 5-2l2.04-.824 2.147-.863 2.043-.825C304 382 304 382 306 383"/><path fill="#353535" d="m361 352 4 2-4 4-2.125 2.25C357 362 357 362 355 362c.375-1.937.375-1.937 1-4l2-1 1-3h2z"/><path fill="#707070" d="M220 316h2c-.783 3.916-2.392 7.364-4 11l-5-1 3-1c.73-1.977 1.394-3.98 2-6z"/><path fill="#0d0d0d" d="m227 295 1 3-2 1-1 3-5 1v-4z"/><path fill="#343434" d="M240 414c-8.75 7-8.75 7-14 7l1-4 2 1 2.688-2c3.293-1.989 4.595-2.437 8.312-2"/><path fill="#0c0c0c" d="m231 358 3 1 1 6-4 1a177 177 0 0 1-1-7z"/><path fill="#1b1b1b" d="M127 70h1l1 15-2-4-2-1c-.195-6.055-.195-6.055 0-8z"/><path fill="#7d7d7d" d="m351 399 3 1c-1 3-1 3-2.742 3.984l-2.133.766-2.117.797C345 406 345 406 342 405a345 345 0 0 1 4.313-3.062l2.425-1.723z"/><path fill="#101010" d="M378 296c1.52 1.207 1.52 1.207 3 3 .074 2.262.074 2.262-.312 4.688l-.364 2.449L380 308l-1-3h-3l1-4h2z"/><path fill="#838383" d="m136 169 5 1 .875 2.938c.767 3.169.767 3.169 3.125 4.062l-3 1-4.687-6.152C136 170 136 170 136 169"/><path fill="#6d6d6d" d="M346 431c4.314.48 6.166 1.746 9 5-3.01.934-3.867 1.044-7 0-1.187-2.562-1.187-2.562-2-5"/><path fill="#535353" d="m256 408-4 2-1.812 1.125c-3.088 1.235-5.9 1.001-9.188.875 4.208-4.208 9.313-4.227 15-4"/><path fill="#161616" d="M260 275h10c-5.143 4.429-5.143 4.429-9 5z"/><path fill="#a4a4a4" d="M361 243h9v2l-10 1zm-4 3 3 1Z"/><path fill="#121212" d="M202 430v4l-7 1c.375-1.937.375-1.937 1-4 2-1 2-1 6-1"/><path fill="#0d0d0d" d="M213 377h3c.73 1.977 1.394 3.98 2 6l-1 2h-3z"/><path fill="#737373" d="M378 343h1c.337 6.963-.697 12.433-3 19h-1c.623-6.44 1.64-12.676 3-19"/><path fill="#757575" d="M309 289c-4.975 3.249-7.882 4.5-14 4 8.667-5.778 8.667-5.778 14-4"/><path fill="#1f1f1f" d="M287 262h5v3c-5.273 3.223-5.273 3.223-7 4l-2-1 1-2h2z"/><path fill="#676767" d="M300 250c-3 2-3 2-6 2v2l-8 1c3.944-4.567 8.14-5.273 14-5"/><path fill="#969696" d="m173 458 2 2c-3.625 3-3.625 3-7 3l1-4c1.875-.625 1.875-.625 4-1m-7 6 2 2h-2l-1 2z"/><path fill="#292929" d="M185 435c2 .25 2 .25 4 1l1 3-4 2-1-3-1 1c-2 .04-4 .043-6 0v-1l2.938-.937c2.903-.758 2.903-.758 4.062-2.063"/><path fill="#787878" d="m254 414 1 2h-2c-1.414 2.639-2.372 5.071-3 8h-2c-.375-2.75-.375-2.75 0-6 3-2.375 3-2.375 6-4"/><path fill="#3d3d3d" d="M359.188 402.375 361 403c-3.653 2.634-6.485 4.469-11 5 5.97-6.176 5.97-6.176 9.188-5.625"/><path fill="#b3b3b3" d="m347 328 3 1c-.398 2.886-.79 3.822-3.062 5.75L345 336v-7z"/><path fill="#5e5e5e" d="M280 261c-1.24.87-2.492 1.72-3.75 2.563l-2.11 1.44c-2.14.997-2.14.997-4.406.65L268 265c7.216-6.392 7.216-6.392 12-4"/><path fill="gray" d="m144 178 3 1c.688 2.063.688 2.063 1 4h3l2 8c-2.5-2.174-3.436-3.73-4-7h-2z"/><path fill="#242424" d="m303 416-1 3h-12c4.781-2.39 7.722-3.117 13-3"/><path fill="#3b3b3b" d="m266 293 1 4-5 3v-2l-3-1c4.75-4 4.75-4 7-4"/><path fill="#272727" d="m302 444-3 3 4 2c-1.687.813-1.687.813-4 1-2.75-2.437-2.75-2.437-5-5 3.067-1.862 4.597-2.215 8-1"/><path fill="#787878" d="m318 382 2 1c-4.625 4.875-4.625 4.875-8 6-2.187-.937-2.187-.937-4-2q2.43-1.294 4.875-2.562l2.742-1.442z"/><path fill="#767676" d="M372 367h1c.566 5.656-1.286 9.226-4 14-1.61-3.22-.068-5.682 1-9a152 152 0 0 1 2-5"/><path fill="gray" d="m209 317 3 1-.5 2.375c-.562 2.507-.562 2.507-.5 4.625l-4-1c.875-5.875.875-5.875 2-7"/><path fill="#535353" d="M338 273c-5.01 3.006-8.327 3.293-14 3 2.796-1.864 4.372-2.488 7.563-3.187l2.378-.543C336 272 336 272 338 273"/><path fill="#525252" d="M318 244v2c-1.6.7-3.205 1.384-4.812 2.063l-2.708 1.16C308 250 308 250 305 249q2.117-1.264 4.25-2.5l2.39-1.406C314 244 314 244 318 244"/><path fill="#212121" d="M314 178c4.11 1.45 7.433 3.511 11 6l-1 3a691 691 0 0 1-5-3.375l-2.812-1.898L314 180z"/><path fill="#0a0a0a" d="M292 441h6v3c-1 1-1 1-3.562 1.063L292 445z"/><path fill="#5c5c5c" d="M335 426c3.377.537 6.697 1.11 10 2v2c-3.947.18-6.598.094-10-2z"/><path fill="#4f4f4f" d="m360 352-2 6-2-1c-2.098.4-2.098.4-4 1 1.014-2.536 1.65-3.781 4-5.25 2-.75 2-.75 4-.75"/><path fill="#9a9a9a" d="m133 249 1 2-6 7-3-1z"/><path fill="#0f0f0f" d="m150 189 5 5-1 2c-2.5-1.312-2.5-1.312-5-3 0-3 0-3 1-4"/><path fill="#313131" d="M121 35h2c1.074 5.957 1.074 5.957 1 8l-3 3z"/><path fill="#757575" d="m290 391-10 6v-3c6.625-4.125 6.625-4.125 10-3"/><path fill="#a1a1a1" d="m305 258 2 1v3c-1.812 1.75-1.812 1.75-4 3l-3-1z"/><path fill="#3c3c3c" d="M117 34h1v11l-1-4h-2c-.125-2.375-.125-2.375 0-5z"/><path fill="#080808" d="m210 364 1 3h2l-1 4h-3c-.625-2.375-.625-2.375-1-5z"/><path fill="#8a8a8a" d="M378 340c1.255 3.766.37 5.372-1 9l-4-5z"/><path fill="#949494" d="M209.125 324.938c.949.35 1.898.7 2.875 1.062v3c-5.75-1.75-5.75-1.75-8-4 2-1 2-1 5.125-.062"/><path fill="#545454" d="M263 300v3c-2.812 1.563-2.812 1.563-6 3l-3-1a466 466 0 0 1 3.375-2.5l1.898-1.406C261 300 261 300 263 300"/><path fill="#8a8a8a" d="M124 258v3l-3 1c-1.209 2-1.209 2-2 4h-3v-2c1.75-1.508 1.75-1.508 4-3.125l2.25-1.633z"/><path fill="#363636" d="M124 185a56.5 56.5 0 0 1 7 4c.688 2.625.688 2.625 1 5h-2c-1.508-1.969-1.508-1.969-3.125-4.5l-1.633-2.531z"/><path fill="#4b4b4b" d="m100 150 1 2c2.527.656 2.527.656 5 1 0 3 0 3-2 6-4-5.625-4-5.625-4-9"/><path fill="#6a6a6a" d="M218.313 314.25 220 315l-2.312 1.375c-4.422 2.672-4.422 2.672-7.688 6.625.293-3.511.81-4.805 3.313-7.375C216 314 216 314 218.313 314.25"/><path fill="#1b1b1b" d="M294 279v2l-4 1v2l-5 1v-2c5.294-4 5.294-4 9-4"/><path fill="#4c4c4c" d="m302 270 2 1c-5.143 5.571-5.143 5.571-9 6v-2h2v-2c2.375-1.687 2.375-1.687 5-3m43-2c0 2 0 2-1.25 3.688L342 273c-2.187-.312-2.187-.312-4-1l1-3c3-1 3-1 6-1"/><path fill="#131313" d="m320 267-1 3-7 1v-2c5.75-2 5.75-2 8-2"/><path fill="#999" d="M119 41h1l1 10h-3c-.125-7.75-.125-7.75 1-10"/><path fill="#747474" d="m324 366 2 1c-2.657 3.739-4.581 5.65-9 7l1-3 5-2z"/><path fill="#303030" d="M371 340c0 3 0 3-1.312 4.387L365 348c.349-3.255 1.021-4.019 3.563-6.25z"/><path fill="#1a1a1a" d="m241 276 4 2v2h-2l-1 2-4-3 3-1z"/><path fill="#5d5d5d" d="M342 189c1.875.188 1.875.188 4 1 1.25 2.563 1.25 2.563 2 5l-8-2 3-2z"/><path fill="#3b3b3b" d="M123 67h3c1.108 3.325.845 5.622 0 9l-2-1c-.594-2.649-.742-5.292-1-8"/><path fill="#0d0d0d" d="M308 416v3h-6l-1-2c3.625-2.125 3.625-2.125 7-1"/><path fill="#454545" d="M226 415h8l-5 4-3-2z"/><path fill="#494949" d="M271 295v2l3 1c-2.875.625-2.875.625-6 1l-2-2c3-2 3-2 5-2"/><path fill="#3b3b3b" d="M256 275c-.562 1.938-.562 1.938-2 4-3.625.75-3.625.75-7 1 6.59-5 6.59-5 9-5"/><path fill="#848484" d="m232 268 7 1-1 5a318 318 0 0 1-6-5z"/><path fill="#363636" d="m287 258 2 1-3 1v3l-5 1v-3a101 101 0 0 1 6-3"/><path fill="#191919" d="m184 178 2 1-2 5h-3v-3l-2-1c2.375-1.062 2.375-1.062 5-2"/><path fill="#686868" d="M360 399c-4.75 4-4.75 4-7 4l1-4c3.75-1.125 3.75-1.125 6 0"/><path fill="#121212" d="M364 349h3l-1 4-4 1c.875-3.875.875-3.875 2-5"/><path fill="#9e9e9e" d="M373 345c0 2.621-.313 4.51-1 7h-4c1.293-2.884 2.66-4.872 5-7"/><path fill="#7f7f7f" d="m243 309 2 3-6 4v-3l4-2z"/><path fill="#545454" d="M322 275v3c-2.375 1.063-2.375 1.063-5 2l-2-1z"/><path fill="#1c1c1c" d="M351 197c2 2 2 2 2.125 5.125L353 205l-4-4 2-1z"/></svg>